<?xml version="1.0"?>
<!-- Created by MetaPost 1.999 on 2021.07.06:0011 -->
<svg version="1.1" xmlns="http://www.w3.org/2000/svg" xmlns:xlink="http://www.w3.org/1999/xlink" width="217.981171" height="226.462585" viewBox="0 0 217.981171 226.462585">
<!-- Original BoundingBox: -79.355118 -57.402634 138.626053 169.059952 -->
  <defs>
    <g transform="scale(0.009963,0.009963)" id="GLYPHcmr10_49">
      <path style="fill-rule: evenodd;" d="M294.000000 -640.000000C294.000000 -664.000000,294.000000 -666.000000,271.000000 -666.000000C209.000000 -602.000000,121.000000 -602.000000,89.000000 -602.000000L89.000000 -571.000000C109.000000 -571.000000,168.000000 -571.000000,220.000000 -597.000000L220.000000 -79.000000C220.000000 -43.000000,217.000000 -31.000000,127.000000 -31.000000L95.000000 -31.000000L95.000000 -0.000000L257.000000 -0.000000L130.000000 -3.000000L217.000000 -3.000000L257.000000 -3.000000L297.000000 -3.000000L384.000000 -3.000000L419.000000 -0.000000L419.000000 -31.000000L387.000000 -31.000000C297.000000 -31.000000,294.000000 -42.000000,294.000000 -79.000000"></path>
    </g>
    <g transform="scale(0.009963,0.009963)" id="GLYPHcmr10_50">
      <path style="fill-rule: evenodd;" d="M127.000000 -77.000000L233.000000 -180.000000C389.000000 -318.000000,449.000000 -372.000000,449.000000 -472.000000C449.000000 -586.000000,359.000000 -666.000000,237.000000 -666.000000C124.000000 -666.000000,50.000000 -574.000000,50.000000 -485.000000C50.000000 -429.000000,100.000000 -429.000000,103.000000 -429.000000C120.000000 -429.000000,155.000000 -441.000000,155.000000 -482.000000C155.000000 -508.000000,137.000000 -534.000000,102.000000 -534.000000C94.000000 -534.000000,92.000000 -534.000000,89.000000 -533.000000C112.000000 -598.000000,166.000000 -635.000000,224.000000 -635.000000C315.000000 -635.000000,358.000000 -554.000000,358.000000 -472.000000C358.000000 -392.000000,308.000000 -313.000000,253.000000 -251.000000L61.000000 -37.000000C50.000000 -26.000000,50.000000 -24.000000,50.000000 -0.000000L421.000000 -0.000000L449.000000 -174.000000L424.000000 -174.000000C419.000000 -144.000000,412.000000 -100.000000,402.000000 -85.000000C395.000000 -77.000000,329.000000 -77.000000,307.000000 -77.000000"></path>
    </g>
    <g transform="scale(0.009963,0.009963)" id="GLYPHcmr10_51">
      <path style="fill-rule: evenodd;" d="M290.000000 -352.000000C372.000000 -379.000000,430.000000 -449.000000,430.000000 -528.000000C430.000000 -610.000000,342.000000 -666.000000,246.000000 -666.000000C145.000000 -666.000000,69.000000 -606.000000,69.000000 -530.000000C69.000000 -497.000000,91.000000 -478.000000,120.000000 -478.000000C151.000000 -478.000000,171.000000 -500.000000,171.000000 -529.000000C171.000000 -579.000000,124.000000 -579.000000,109.000000 -579.000000C140.000000 -628.000000,206.000000 -641.000000,242.000000 -641.000000C283.000000 -641.000000,338.000000 -619.000000,338.000000 -529.000000C338.000000 -517.000000,336.000000 -459.000000,310.000000 -415.000000C280.000000 -367.000000,246.000000 -364.000000,221.000000 -363.000000C213.000000 -362.000000,189.000000 -360.000000,182.000000 -360.000000C174.000000 -359.000000,167.000000 -358.000000,167.000000 -348.000000C167.000000 -337.000000,174.000000 -337.000000,191.000000 -337.000000L235.000000 -337.000000C317.000000 -337.000000,354.000000 -269.000000,354.000000 -171.000000C354.000000 -35.000000,285.000000 -6.000000,241.000000 -6.000000C198.000000 -6.000000,123.000000 -23.000000,88.000000 -82.000000C123.000000 -77.000000,154.000000 -99.000000,154.000000 -137.000000C154.000000 -173.000000,127.000000 -193.000000,98.000000 -193.000000C74.000000 -193.000000,42.000000 -179.000000,42.000000 -135.000000C42.000000 -44.000000,135.000000 22.000000,244.000000 22.000000C366.000000 22.000000,457.000000 -69.000000,457.000000 -171.000000C457.000000 -253.000000,394.000000 -331.000000,290.000000 -352.000000"></path>
    </g>
  </defs>
  <path d="M120.867538 152.770294C120.867538 151.977600,120.552597 151.217453,119.992111 150.656982C119.431641 150.096497,118.671494 149.781555,117.878799 149.781555C117.086105 149.781555,116.325958 150.096497,115.765488 150.656982C115.205002 151.217453,114.890060 151.977600,114.890060 152.770294C114.890060 153.562988,115.205002 154.323135,115.765488 154.883606C116.325958 155.444092,117.086105 155.759033,117.878799 155.759033C118.671494 155.759033,119.431641 155.444092,119.992111 154.883606C120.552597 154.323135,120.867538 153.562988,120.867538 152.770294Z" style="fill: rgb(100.000000%,100.000000%,100.000000%);stroke: none;"></path>
  <path d="M130.349731 133.932327C130.349731 133.139633,130.034790 132.379486,129.474304 131.819016C128.913834 131.258530,128.153687 130.943588,127.360992 130.943588C126.568298 130.943588,125.808151 131.258530,125.247681 131.819016C124.687195 132.379486,124.372253 133.139633,124.372253 133.932327C124.372253 134.725021,124.687195 135.485168,125.247681 136.045639C125.808151 136.606125,126.568298 136.921066,127.360992 136.921066C128.153687 136.921066,128.913834 136.606125,129.474304 136.045639C130.034790 135.485168,130.349731 134.725021,130.349731 133.932327Z" style="fill: rgb(100.000000%,100.000000%,100.000000%);stroke: none;"></path>
  <path d="M44.502548 174.677368C44.502548 173.884674,44.187607 173.124527,43.627121 172.564056C43.066650 172.003571,42.306503 171.688629,41.513809 171.688629C40.721115 171.688629,39.960968 172.003571,39.400497 172.564056C38.840012 173.124527,38.525070 173.884674,38.525070 174.677368C38.525070 175.470062,38.840012 176.230209,39.400497 176.790680C39.960968 177.351166,40.721115 177.666107,41.513809 177.666107C42.306503 177.666107,43.066650 177.351166,43.627121 176.790680C44.187607 176.230209,44.502548 175.470062,44.502548 174.677368Z" style="fill: rgb(100.000000%,100.000000%,100.000000%);stroke: none;"></path>
  <path d="M102.840775 165.841919C102.840775 165.049225,102.525833 164.289078,101.965347 163.728607C101.404877 163.168121,100.644730 162.853180,99.852036 162.853180C99.059341 162.853180,98.299194 163.168121,97.738724 163.728607C97.178238 164.289078,96.863297 165.049225,96.863297 165.841919C96.863297 166.634613,97.178238 167.394760,97.738724 167.955231C98.299194 168.515717,99.059341 168.830658,99.852036 168.830658C100.644730 168.830658,101.404877 168.515717,101.965347 167.955231C102.525833 167.394760,102.840775 166.634613,102.840775 165.841919Z" style="fill: rgb(100.000000%,100.000000%,100.000000%);stroke: none;"></path>
  <path d="M5.622360 70.827652C5.622360 70.034958,5.307419 69.274811,4.746933 68.714340C4.186462 68.153854,3.426315 67.838913,2.633621 67.838913C1.840927 67.838913,1.080780 68.153854,0.520309 68.714340C-0.040176 69.274811,-0.355118 70.034958,-0.355118 70.827652C-0.355118 71.620346,-0.040176 72.380493,0.520309 72.940964C1.080780 73.501450,1.840927 73.816391,2.633621 73.816391C3.426315 73.816391,4.186462 73.501450,4.746933 72.940964C5.307419 72.380493,5.622360 71.620346,5.622360 70.827652Z" style="fill: rgb(100.000000%,100.000000%,100.000000%);stroke: none;"></path>
  <path d="M9.452072 148.653793C9.452072 147.861099,9.137131 147.100952,8.576645 146.540482C8.016174 145.979996,7.256027 145.665054,6.463333 145.665054C5.670639 145.665054,4.910492 145.979996,4.350021 146.540482C3.789536 147.100952,3.474594 147.861099,3.474594 148.653793C3.474594 149.446487,3.789536 150.206635,4.350021 150.767105C4.910492 151.327591,5.670639 151.642532,6.463333 151.642532C7.256027 151.642532,8.016174 151.327591,8.576645 150.767105C9.137131 150.206635,9.452072 149.446487,9.452072 148.653793Z" style="fill: rgb(100.000000%,100.000000%,100.000000%);stroke: none;"></path>
  <path d="M100.797806 61.714417C100.797806 60.921722,100.482864 60.161575,99.922379 59.601105C99.361908 59.040619,98.601761 58.725677,97.809067 58.725677C97.016373 58.725677,96.256226 59.040619,95.695755 59.601105C95.135269 60.161575,94.820328 60.921722,94.820328 61.714417C94.820328 62.507111,95.135269 63.267258,95.695755 63.827728C96.256226 64.388214,97.016373 64.703156,97.809067 64.703156C98.601761 64.703156,99.361908 64.388214,99.922379 63.827728C100.482864 63.267258,100.797806 62.507111,100.797806 61.714417Z" style="fill: rgb(100.000000%,100.000000%,100.000000%);stroke: none;"></path>
  <path d="M44.761566 40.715637C44.761566 39.922943,44.446625 39.162796,43.886139 38.602325C43.325668 38.041840,42.565521 37.726898,41.772827 37.726898C40.980133 37.726898,40.219986 38.041840,39.659515 38.602325C39.099030 39.162796,38.784088 39.922943,38.784088 40.715637C38.784088 41.508331,39.099030 42.268478,39.659515 42.828949C40.219986 43.389435,40.980133 43.704376,41.772827 43.704376C42.565521 43.704376,43.325668 43.389435,43.886139 42.828949C44.446625 42.268478,44.761566 41.508331,44.761566 40.715637Z" style="fill: rgb(100.000000%,100.000000%,100.000000%);stroke: none;"></path>
  <path d="M148.164612 98.833481C148.164612 98.040787,147.849670 97.280640,147.289185 96.720169C146.728714 96.159683,145.968567 95.844742,145.175873 95.844742C144.383179 95.844742,143.623032 96.159683,143.062561 96.720169C142.502075 97.280640,142.187134 98.040787,142.187134 98.833481C142.187134 99.626175,142.502075 100.386322,143.062561 100.946793C143.623032 101.507278,144.383179 101.822220,145.175873 101.822220C145.968567 101.822220,146.728714 101.507278,147.289185 100.946793C147.849670 100.386322,148.164612 99.626175,148.164612 98.833481Z" style="fill: rgb(100.000000%,100.000000%,100.000000%);stroke: none;"></path>
  <path d="M112.524185 80.111069C112.524185 79.318375,112.209244 78.558228,111.648758 77.997757C111.088287 77.437271,110.328140 77.122330,109.535446 77.122330C108.742752 77.122330,107.982605 77.437271,107.422134 77.997757C106.861649 78.558228,106.546707 79.318375,106.546707 80.111069C106.546707 80.903763,106.861649 81.663910,107.422134 82.224380C107.982605 82.784866,108.742752 83.099808,109.535446 83.099808C110.328140 83.099808,111.088287 82.784866,111.648758 82.224380C112.209244 81.663910,112.524185 80.903763,112.524185 80.111069Z" style="fill: rgb(100.000000%,100.000000%,100.000000%);stroke: none;"></path>
  <path d="M213.773560 135.287476C213.773560 134.494781,213.458618 133.734634,212.898132 133.174164C212.337662 132.613678,211.577515 132.298737,210.784821 132.298737C209.992126 132.298737,209.231979 132.613678,208.671509 133.174164C208.111023 133.734634,207.796082 134.494781,207.796082 135.287476C207.796082 136.080170,208.111023 136.840317,208.671509 137.400787C209.231979 137.961273,209.992126 138.276215,210.784821 138.276215C211.577515 138.276215,212.337662 137.961273,212.898132 137.400787C213.458618 136.840317,213.773560 136.080170,213.773560 135.287476Z" style="fill: rgb(100.000000%,100.000000%,100.000000%);stroke: none;"></path>
  <path d="M170.677200 98.098694C170.677200 97.306000,170.362259 96.545853,169.801773 95.985382C169.241302 95.424896,168.481155 95.109955,167.688461 95.109955C166.895767 95.109955,166.135620 95.424896,165.575150 95.985382C165.014664 96.545853,164.699722 97.306000,164.699722 98.098694C164.699722 98.891388,165.014664 99.651535,165.575150 100.212006C166.135620 100.772491,166.895767 101.087433,167.688461 101.087433C168.481155 101.087433,169.241302 100.772491,169.801773 100.212006C170.362259 99.651535,170.677200 98.891388,170.677200 98.098694Z" style="fill: rgb(100.000000%,100.000000%,100.000000%);stroke: none;"></path>
  <path d="M135.362350 223.413895C135.362350 222.621201,135.047409 221.861053,134.486923 221.300583C133.926453 220.740097,133.166306 220.425156,132.373611 220.425156C131.580917 220.425156,130.820770 220.740097,130.260300 221.300583C129.699814 221.861053,129.384872 222.621201,129.384872 223.413895C129.384872 224.206589,129.699814 224.966736,130.260300 225.527206C130.820770 226.087692,131.580917 226.402634,132.373611 226.402634C133.166306 226.402634,133.926453 226.087692,134.486923 225.527206C135.047409 224.966736,135.362350 224.206589,135.362350 223.413895Z" style="fill: rgb(100.000000%,100.000000%,100.000000%);stroke: none;"></path>
  <path d="M205.464294 180.279877C205.464294 179.487183,205.149353 178.727036,204.588867 178.166565C204.028397 177.606079,203.268250 177.291138,202.475555 177.291138C201.682861 177.291138,200.922714 177.606079,200.362244 178.166565C199.801758 178.727036,199.486816 179.487183,199.486816 180.279877C199.486816 181.072571,199.801758 181.832718,200.362244 182.393188C200.922714 182.953674,201.682861 183.268616,202.475555 183.268616C203.268250 183.268616,204.028397 182.953674,204.588867 182.393188C205.149353 181.832718,205.464294 181.072571,205.464294 180.279877Z" style="fill: rgb(100.000000%,100.000000%,100.000000%);stroke: none;"></path>
  <path d="M78.677322 149.687302C78.677322 148.894608,78.362381 148.134460,77.801895 147.573990C77.241425 147.013504,76.481277 146.698563,75.688583 146.698563C74.895889 146.698563,74.135742 147.013504,73.575272 147.573990C73.014786 148.134460,72.699844 148.894608,72.699844 149.687302C72.699844 150.479996,73.014786 151.240143,73.575272 151.800613C74.135742 152.361099,74.895889 152.676041,75.688583 152.676041C76.481277 152.676041,77.241425 152.361099,77.801895 151.800613C78.362381 151.240143,78.677322 150.479996,78.677322 149.687302Z" style="fill: rgb(100.000000%,100.000000%,100.000000%);stroke: none;"></path>
  <path d="M88.551056 207.272568C88.551056 206.479874,88.236115 205.719727,87.675629 205.159256C87.115158 204.598770,86.355011 204.283829,85.562317 204.283829C84.769623 204.283829,84.009476 204.598770,83.449005 205.159256C82.888519 205.719727,82.573578 206.479874,82.573578 207.272568C82.573578 208.065262,82.888519 208.825409,83.449005 209.385880C84.009476 209.946365,84.769623 210.261307,85.562317 210.261307C86.355011 210.261307,87.115158 209.946365,87.675629 209.385880C88.236115 208.825409,88.551056 208.065262,88.551056 207.272568Z" style="fill: rgb(100.000000%,100.000000%,100.000000%);stroke: none;"></path>
  <path d="M89.518845 92.324524C89.518845 91.531830,89.203903 90.771683,88.643417 90.211212C88.082947 89.650726,87.322800 89.335785,86.530106 89.335785C85.737411 89.335785,84.977264 89.650726,84.416794 90.211212C83.856308 90.771683,83.541367 91.531830,83.541367 92.324524C83.541367 93.117218,83.856308 93.877365,84.416794 94.437836C84.977264 94.998322,85.737411 95.313263,86.530106 95.313263C87.322800 95.313263,88.082947 94.998322,88.643417 94.437836C89.203903 93.877365,89.518845 93.117218,89.518845 92.324524Z" style="fill: rgb(100.000000%,100.000000%,100.000000%);stroke: none;"></path>
  <path d="M89.682388 131.178467C89.682388 130.385773,89.367447 129.625626,88.806961 129.065155C88.246490 128.504669,87.486343 128.189728,86.693649 128.189728C85.900955 128.189728,85.140808 128.504669,84.580338 129.065155C84.019852 129.625626,83.704910 130.385773,83.704910 131.178467C83.704910 131.971161,84.019852 132.731308,84.580338 133.291779C85.140808 133.852264,85.900955 134.167206,86.693649 134.167206C87.486343 134.167206,88.246490 133.852264,88.806961 133.291779C89.367447 132.731308,89.682388 131.971161,89.682388 131.178467Z" style="fill: rgb(100.000000%,100.000000%,100.000000%);stroke: none;"></path>
  <path d="M88.802979 17.785355C88.802979 16.992661,88.488037 16.232513,87.927551 15.672043C87.367081 15.111557,86.606934 14.796616,85.814240 14.796616C85.021545 14.796616,84.261398 15.111557,83.700928 15.672043C83.140442 16.232513,82.825500 16.992661,82.825500 17.785355C82.825500 18.578049,83.140442 19.338196,83.700928 19.898666C84.261398 20.459152,85.021545 20.774094,85.814240 20.774094C86.606934 20.774094,87.367081 20.459152,87.927551 19.898666C88.488037 19.338196,88.802979 18.578049,88.802979 17.785355Z" style="fill: rgb(100.000000%,100.000000%,100.000000%);stroke: none;"></path>
  <path d="M78.438629 73.880249C78.438629 73.087555,78.123688 72.327408,77.563202 71.766937C77.002731 71.206451,76.242584 70.891510,75.449890 70.891510C74.657196 70.891510,73.897049 71.206451,73.336578 71.766937C72.776093 72.327408,72.461151 73.087555,72.461151 73.880249C72.461151 74.672943,72.776093 75.433090,73.336578 75.993561C73.897049 76.554047,74.657196 76.868988,75.449890 76.868988C76.242584 76.868988,77.002731 76.554047,77.563202 75.993561C78.123688 75.433090,78.438629 74.672943,78.438629 73.880249Z" style="fill: rgb(100.000000%,100.000000%,100.000000%);stroke: none;"></path>
  <path d="M210.100693 43.523880C210.100693 42.731186,209.785751 41.971039,209.225266 41.410568C208.664795 40.850082,207.904648 40.535141,207.111954 40.535141C206.319260 40.535141,205.559113 40.850082,204.998642 41.410568C204.438156 41.971039,204.123215 42.731186,204.123215 43.523880C204.123215 44.316574,204.438156 45.076721,204.998642 45.637192C205.559113 46.197678,206.319260 46.512619,207.111954 46.512619C207.904648 46.512619,208.664795 46.197678,209.225266 45.637192C209.785751 45.076721,210.100693 44.316574,210.100693 43.523880Z" style="fill: rgb(100.000000%,100.000000%,100.000000%);stroke: none;"></path>
  <path d="M133.934326 2.928787C133.934326 2.136093,133.619385 1.375946,133.058899 0.815475C132.498428 0.254990,131.738281 -0.059952,130.945587 -0.059952C130.152893 -0.059952,129.392746 0.254990,128.832275 0.815475C128.271790 1.375946,127.956848 2.136093,127.956848 2.928787C127.956848 3.721481,128.271790 4.481628,128.832275 5.042099C129.392746 5.602585,130.152893 5.917526,130.945587 5.917526C131.738281 5.917526,132.498428 5.602585,133.058899 5.042099C133.619385 4.481628,133.934326 3.721481,133.934326 2.928787Z" style="fill: rgb(100.000000%,100.000000%,100.000000%);stroke: none;"></path>
  <path d="M168.294006 121.884674C168.294006 121.091980,167.979065 120.331833,167.418579 119.771362C166.858109 119.210876,166.097961 118.895935,165.305267 118.895935C164.512573 118.895935,163.752426 119.210876,163.191956 119.771362C162.631470 120.331833,162.316528 121.091980,162.316528 121.884674C162.316528 122.677368,162.631470 123.437515,163.191956 123.997986C163.752426 124.558472,164.512573 124.873413,165.305267 124.873413C166.097961 124.873413,166.858109 124.558472,167.418579 123.997986C167.979065 123.437515,168.294006 122.677368,168.294006 121.884674Z" style="fill: rgb(100.000000%,100.000000%,100.000000%);stroke: none;"></path>
  <path d="M217.626053 93.091263C217.626053 92.298569,217.311111 91.538422,216.750626 90.977951C216.190155 90.417465,215.430008 90.102524,214.637314 90.102524C213.844620 90.102524,213.084473 90.417465,212.524002 90.977951C211.963516 91.538422,211.648575 92.298569,211.648575 93.091263C211.648575 93.883957,211.963516 94.644104,212.524002 95.204575C213.084473 95.765060,213.844620 96.080002,214.637314 96.080002C215.430008 96.080002,216.190155 95.765060,216.750626 95.204575C217.311111 94.644104,217.626053 93.883957,217.626053 93.091263Z" style="fill: rgb(100.000000%,100.000000%,100.000000%);stroke: none;"></path>
  <path d="M127.360992 133.932327C117.878799 152.770294,99.852036 165.841919,79.000000 169.000000C41.513809 174.677368,6.463333 148.653793,4.642365 111.648682C2.633621 70.827652,41.772827 40.715637,79.000000 54.665985C97.809067 61.714417,109.535446 80.111069,127.237259 89.410080C145.175873 98.833481,167.688461 98.098694,183.169708 111.457809C210.784821 135.287476,202.475555 180.279877,168.674927 201.077545C132.373611 223.413895,85.562317 207.272568,79.000000 169.000000C75.688583 149.687302,86.693649 131.178467,86.611725 111.715042C86.530106 92.324524,75.449890 73.880249,79.000000 54.665985C85.814240 17.785355,130.945587 2.928787,167.760178 22.550201C207.111954 43.523880,214.637314 93.091263,183.169708 111.457809C165.305267 121.884674,137.357849 114.071945,127.360992 133.932327" style="stroke:rgb(0.000000%,0.000000%,0.000000%); stroke-width: 0.498138;stroke-linecap: round;stroke-linejoin: round;stroke-miterlimit: 10.000000;fill: none;"></path>
  <path d="M127.360992 133.932327C117.878799 152.770294,99.852036 165.841919,79.000000 169.000000" style="stroke:rgb(0.000000%,0.000000%,0.000000%); stroke-width: 1.494400;stroke-linecap: round;stroke-linejoin: round;stroke-miterlimit: 10.000000;fill: none;"></path>
  <path d="M79.000000 54.665985C85.814240 17.785355,130.945587 2.928787,167.760178 22.550201C207.111954 43.523880,214.637314 93.091263,183.169708 111.457809C165.305267 121.884674,137.357849 114.071945,127.360992 133.932327" style="stroke:rgb(0.000000%,0.000000%,0.000000%); stroke-width: 1.494400;stroke-linecap: round;stroke-linejoin: round;stroke-miterlimit: 10.000000;fill: none;"></path>
  <path d="M81.988739 169.000000C81.988739 168.207306,81.673798 167.447159,81.113312 166.886688C80.552841 166.326202,79.792694 166.011261,79.000000 166.011261C78.207306 166.011261,77.447159 166.326202,76.886688 166.886688C76.326202 167.447159,76.011261 168.207306,76.011261 169.000000C76.011261 169.792694,76.326202 170.552841,76.886688 171.113312C77.447159 171.673798,78.207306 171.988739,79.000000 171.988739C79.792694 171.988739,80.552841 171.673798,81.113312 171.113312C81.673798 170.552841,81.988739 169.792694,81.988739 169.000000Z" style="fill: rgb(100.000000%,100.000000%,100.000000%);stroke: none;"></path>
  <path d="M112.685333 207.767105C95.624557 201.739746,82.281158 188.136276,79.000000 169.000000C77.344284 159.343643,79.267700 149.888260,81.594803 140.414032" style="stroke:rgb(0.000000%,0.000000%,0.000000%); stroke-width: 0.498138;stroke-linecap: round;stroke-linejoin: round;stroke-miterlimit: 10.000000;fill: none;"></path>
  <path d="M186.158447 111.457809C186.158447 110.665115,185.843506 109.904968,185.283020 109.344498C184.722549 108.784012,183.962402 108.469070,183.169708 108.469070C182.377014 108.469070,181.616867 108.784012,181.056396 109.344498C180.495911 109.904968,180.180969 110.665115,180.180969 111.457809C180.180969 112.250504,180.495911 113.010651,181.056396 113.571121C181.616867 114.131607,182.377014 114.446548,183.169708 114.446548C183.962402 114.446548,184.722549 114.131607,185.283020 113.571121C185.843506 113.010651,186.158447 112.250504,186.158447 111.457809Z" style="fill: rgb(100.000000%,100.000000%,100.000000%);stroke: none;"></path>
  <path d="M202.022217 67.981689C204.889069 85.291061,198.903503 102.274536,183.169708 111.457809C174.237488 116.671249,162.784515 117.324783,152.315002 119.157501" style="stroke:rgb(0.000000%,0.000000%,0.000000%); stroke-width: 1.494400;stroke-linecap: round;stroke-linejoin: round;stroke-miterlimit: 10.000000;fill: none;"></path>
  <path d="M81.988739 54.665985C81.988739 53.873291,81.673798 53.113144,81.113312 52.552673C80.552841 51.992188,79.792694 51.677246,79.000000 51.677246C78.207306 51.677246,77.447159 51.992188,76.886688 52.552673C76.326202 53.113144,76.011261 53.873291,76.011261 54.665985C76.011261 55.458679,76.326202 56.218826,76.886688 56.779297C77.447159 57.339783,78.207306 57.654724,79.000000 57.654724C79.792694 57.654724,80.552841 57.339783,81.113312 56.779297C81.673798 56.218826,81.988739 55.458679,81.988739 54.665985Z" style="fill: rgb(100.000000%,100.000000%,100.000000%);stroke: none;"></path>
  <path d="M27.107727 62.618057C41.294830 51.731216,60.386414 47.690811,79.000000 54.665985C88.404541 58.190201,96.038406 64.551483,103.533859 71.194077" style="stroke:rgb(0.000000%,0.000000%,0.000000%); stroke-width: 0.498138;stroke-linecap: round;stroke-linejoin: round;stroke-miterlimit: 10.000000;fill: none;"></path>
  <path d="M167.760178 22.550201C199.241714 39.329208,210.354202 74.408325,197.428299 97.172394" style="stroke:rgb(0.000000%,0.000000%,0.000000%); stroke-width: 0.498138;stroke-linecap: round;stroke-linejoin: round;stroke-miterlimit: 10.000000;fill: none;"></path>
  <path d="M197.721756 92.180878C197.730896 93.848923,197.634384 95.515076,197.428299 97.172394C198.745926 96.146240,199.992340 95.036362,201.165390 93.850433Z" style="stroke:rgb(0.000000%,0.000000%,0.000000%); stroke-width: 0.498138;fill: rgb(0.000000%,0.000000%,0.000000%);"></path>
  <path d="M167.760178 22.550201C199.241714 39.329208,210.354202 74.408325,197.428299 97.172394" style="stroke:rgb(0.000000%,0.000000%,0.000000%); stroke-width: 0.498138;stroke-linecap: round;stroke-linejoin: round;stroke-miterlimit: 10.000000;fill: none;"></path>
  <path d="M197.681671 94.183090C197.636047 95.181702,197.551865 96.178650,197.428299 97.172394C198.218369 96.557098,198.982849 95.911682,199.721252 95.237839Z" style="stroke:rgb(0.000000%,0.000000%,0.000000%); stroke-width: 0.498138;fill: rgb(0.000000%,0.000000%,0.000000%);"></path>
  <path d="M4.642365 111.648682C3.035370 78.991730,27.763245 53.188599,56.779053 51.316406" style="stroke:rgb(0.000000%,0.000000%,0.000000%); stroke-width: 0.498138;stroke-linecap: round;stroke-linejoin: round;stroke-miterlimit: 10.000000;fill: none;"></path>
  <path d="M54.126114 52.716797C54.994415 52.226303,55.878922 51.759171,56.779053 51.316406C55.829483 50.992996,54.873749 50.697830,53.912918 50.430664Z" style="stroke:rgb(0.000000%,0.000000%,0.000000%); stroke-width: 0.498138;fill: rgb(0.000000%,0.000000%,0.000000%);"></path>
  <path d="M86.611725 111.715042C86.546432 96.202576,79.441971 81.295700,78.420532 66.115692" style="stroke:rgb(0.000000%,0.000000%,0.000000%); stroke-width: 0.498138;stroke-linecap: round;stroke-linejoin: round;stroke-miterlimit: 10.000000;fill: none;"></path>
  <path d="M79.819046 68.770065C79.331314 67.895294,78.864014 67.011063,78.420532 66.115692C78.100983 67.062393,77.806137 68.018066,77.532455 68.981491Z" style="stroke:rgb(0.000000%,0.000000%,0.000000%); stroke-width: 0.498138;fill: rgb(0.000000%,0.000000%,0.000000%);"></path>
  <path d="M124.370346 136.642532L130.351639 136.642532L130.351639 129.222137L124.370346 129.222137Z" style="fill: rgb(100.000000%,100.000000%,100.000000%);stroke: none;"></path>
  <path d="M124.370346 138.642532L130.351639 138.642532L130.351639 131.222137L124.370346 131.222137Z" style="fill: rgb(100.000000%,100.000000%,100.000000%);stroke: none;"></path>
  <g transform="translate(124.870346 137.142532)" style="fill: rgb(0.000000%,0.000000%,0.000000%);">
    <use xlink:href="#GLYPHcmr10_49"></use>
  </g>
  <path d="M124.246613 92.120285L130.227905 92.120285L130.227905 84.699890L124.246613 84.699890Z" style="fill: rgb(100.000000%,100.000000%,100.000000%);stroke: none;"></path>
  <path d="M124.246613 94.120285L130.227905 94.120285L130.227905 86.699890L124.246613 86.699890Z" style="fill: rgb(100.000000%,100.000000%,100.000000%);stroke: none;"></path>
  <g transform="translate(124.746613 92.620285)" style="fill: rgb(0.000000%,0.000000%,0.000000%);">
    <use xlink:href="#GLYPHcmr10_50"></use>
  </g>
  <path d="M165.684280 203.787750L171.665573 203.787750L171.665573 196.367355L165.684280 196.367355Z" style="fill: rgb(100.000000%,100.000000%,100.000000%);stroke: none;"></path>
  <path d="M165.684280 205.787750L171.665573 205.787750L171.665573 198.367355L165.684280 198.367355Z" style="fill: rgb(100.000000%,100.000000%,100.000000%);stroke: none;"></path>
  <g transform="translate(166.184280 204.287750)" style="fill: rgb(0.000000%,0.000000%,0.000000%);">
    <use xlink:href="#GLYPHcmr10_51"></use>
  </g>
</svg>
