<?xml version="1.0"?>
<!-- Created by MetaPost 1.999 on 2021.07.06:0003 -->
<svg version="1.1" xmlns="http://www.w3.org/2000/svg" xmlns:xlink="http://www.w3.org/1999/xlink" width="219.593399" height="223.104858" viewBox="0 0 219.593399 223.104858">
<!-- Original BoundingBox: -96.065582 -95.396423 123.527817 127.708435 -->
  <defs>
    <g transform="scale(0.009963,0.009963)" id="GLYPHcmr10_49">
      <path style="fill-rule: evenodd;" d="M294.000000 -640.000000C294.000000 -664.000000,294.000000 -666.000000,271.000000 -666.000000C209.000000 -602.000000,121.000000 -602.000000,89.000000 -602.000000L89.000000 -571.000000C109.000000 -571.000000,168.000000 -571.000000,220.000000 -597.000000L220.000000 -79.000000C220.000000 -43.000000,217.000000 -31.000000,127.000000 -31.000000L95.000000 -31.000000L95.000000 -0.000000L257.000000 -0.000000L130.000000 -3.000000L217.000000 -3.000000L257.000000 -3.000000L297.000000 -3.000000L384.000000 -3.000000L419.000000 -0.000000L419.000000 -31.000000L387.000000 -31.000000C297.000000 -31.000000,294.000000 -42.000000,294.000000 -79.000000"></path>
    </g>
    <g transform="scale(0.009963,0.009963)" id="GLYPHcmr10_50">
      <path style="fill-rule: evenodd;" d="M127.000000 -77.000000L233.000000 -180.000000C389.000000 -318.000000,449.000000 -372.000000,449.000000 -472.000000C449.000000 -586.000000,359.000000 -666.000000,237.000000 -666.000000C124.000000 -666.000000,50.000000 -574.000000,50.000000 -485.000000C50.000000 -429.000000,100.000000 -429.000000,103.000000 -429.000000C120.000000 -429.000000,155.000000 -441.000000,155.000000 -482.000000C155.000000 -508.000000,137.000000 -534.000000,102.000000 -534.000000C94.000000 -534.000000,92.000000 -534.000000,89.000000 -533.000000C112.000000 -598.000000,166.000000 -635.000000,224.000000 -635.000000C315.000000 -635.000000,358.000000 -554.000000,358.000000 -472.000000C358.000000 -392.000000,308.000000 -313.000000,253.000000 -251.000000L61.000000 -37.000000C50.000000 -26.000000,50.000000 -24.000000,50.000000 -0.000000L421.000000 -0.000000L449.000000 -174.000000L424.000000 -174.000000C419.000000 -144.000000,412.000000 -100.000000,402.000000 -85.000000C395.000000 -77.000000,329.000000 -77.000000,307.000000 -77.000000"></path>
    </g>
    <g transform="scale(0.009963,0.009963)" id="GLYPHcmr10_51">
      <path style="fill-rule: evenodd;" d="M290.000000 -352.000000C372.000000 -379.000000,430.000000 -449.000000,430.000000 -528.000000C430.000000 -610.000000,342.000000 -666.000000,246.000000 -666.000000C145.000000 -666.000000,69.000000 -606.000000,69.000000 -530.000000C69.000000 -497.000000,91.000000 -478.000000,120.000000 -478.000000C151.000000 -478.000000,171.000000 -500.000000,171.000000 -529.000000C171.000000 -579.000000,124.000000 -579.000000,109.000000 -579.000000C140.000000 -628.000000,206.000000 -641.000000,242.000000 -641.000000C283.000000 -641.000000,338.000000 -619.000000,338.000000 -529.000000C338.000000 -517.000000,336.000000 -459.000000,310.000000 -415.000000C280.000000 -367.000000,246.000000 -364.000000,221.000000 -363.000000C213.000000 -362.000000,189.000000 -360.000000,182.000000 -360.000000C174.000000 -359.000000,167.000000 -358.000000,167.000000 -348.000000C167.000000 -337.000000,174.000000 -337.000000,191.000000 -337.000000L235.000000 -337.000000C317.000000 -337.000000,354.000000 -269.000000,354.000000 -171.000000C354.000000 -35.000000,285.000000 -6.000000,241.000000 -6.000000C198.000000 -6.000000,123.000000 -23.000000,88.000000 -82.000000C123.000000 -77.000000,154.000000 -99.000000,154.000000 -137.000000C154.000000 -173.000000,127.000000 -193.000000,98.000000 -193.000000C74.000000 -193.000000,42.000000 -179.000000,42.000000 -135.000000C42.000000 -44.000000,135.000000 22.000000,244.000000 22.000000C366.000000 22.000000,457.000000 -69.000000,457.000000 -171.000000C457.000000 -253.000000,394.000000 -331.000000,290.000000 -352.000000"></path>
    </g>
    <g transform="scale(0.009963,0.009963)" id="GLYPHcmr10_52">
      <path style="fill-rule: evenodd;" d="M294.000000 -165.000000L294.000000 -78.000000C294.000000 -42.000000,292.000000 -31.000000,218.000000 -31.000000L197.000000 -31.000000L197.000000 -0.000000L332.000000 -0.000000L238.000000 -3.000000L290.000000 -3.000000L332.000000 -3.000000L374.000000 -3.000000L427.000000 -3.000000L468.000000 -0.000000L468.000000 -31.000000L447.000000 -31.000000C373.000000 -31.000000,371.000000 -42.000000,371.000000 -78.000000L371.000000 -165.000000L471.000000 -165.000000L471.000000 -196.000000L371.000000 -196.000000L371.000000 -651.000000C371.000000 -671.000000,371.000000 -677.000000,355.000000 -677.000000C346.000000 -677.000000,343.000000 -677.000000,335.000000 -665.000000L28.000000 -196.000000L28.000000 -165.000000M300.000000 -196.000000L56.000000 -196.000000L300.000000 -569.000000"></path>
    </g>
  </defs>
  <path d="M99.142853 140.701233C99.142853 139.908539,98.827911 139.148392,98.267426 138.587921C97.706955 138.027435,96.946808 137.712494,96.154114 137.712494C95.361420 137.712494,94.601273 138.027435,94.040802 138.587921C93.480316 139.148392,93.165375 139.908539,93.165375 140.701233C93.165375 141.493927,93.480316 142.254074,94.040802 142.814545C94.601273 143.375031,95.361420 143.689972,96.154114 143.689972C96.946808 143.689972,97.706955 143.375031,98.267426 142.814545C98.827911 142.254074,99.142853 141.493927,99.142853 140.701233Z" style="fill: rgb(100.000000%,100.000000%,100.000000%);stroke: none;"></path>
  <path d="M98.550797 147.526657C98.550797 146.733963,98.235855 145.973816,97.675369 145.413345C97.114899 144.852859,96.354752 144.537918,95.562057 144.537918C94.769363 144.537918,94.009216 144.852859,93.448746 145.413345C92.888260 145.973816,92.573318 146.733963,92.573318 147.526657C92.573318 148.319351,92.888260 149.079498,93.448746 149.639969C94.009216 150.200455,94.769363 150.515396,95.562057 150.515396C96.354752 150.515396,97.114899 150.200455,97.675369 149.639969C98.235855 149.079498,98.550797 148.319351,98.550797 147.526657Z" style="fill: rgb(100.000000%,100.000000%,100.000000%);stroke: none;"></path>
  <path d="M98.582733 117.749390C98.582733 116.956696,98.267792 116.196548,97.707306 115.636078C97.146835 115.075592,96.386688 114.760651,95.593994 114.760651C94.801300 114.760651,94.041153 115.075592,93.480682 115.636078C92.920197 116.196548,92.605255 116.956696,92.605255 117.749390C92.605255 118.542084,92.920197 119.302231,93.480682 119.862701C94.041153 120.423187,94.801300 120.738129,95.593994 120.738129C96.386688 120.738129,97.146835 120.423187,97.707306 119.862701C98.267792 119.302231,98.582733 118.542084,98.582733 117.749390Z" style="fill: rgb(100.000000%,100.000000%,100.000000%);stroke: none;"></path>
  <path d="M99.289139 133.844467C99.289139 133.051773,98.974197 132.291626,98.413712 131.731155C97.853241 131.170670,97.093094 130.855728,96.300400 130.855728C95.507706 130.855728,94.747559 131.170670,94.187088 131.731155C93.626602 132.291626,93.311661 133.051773,93.311661 133.844467C93.311661 134.637161,93.626602 135.397308,94.187088 135.957779C94.747559 136.518265,95.507706 136.833206,96.300400 136.833206C97.093094 136.833206,97.853241 136.518265,98.413712 135.957779C98.974197 135.397308,99.289139 134.637161,99.289139 133.844467Z" style="fill: rgb(100.000000%,100.000000%,100.000000%);stroke: none;"></path>
  <path d="M93.332382 80.323990C93.332382 79.531296,93.017441 78.771149,92.456955 78.210678C91.896484 77.650192,91.136337 77.335251,90.343643 77.335251C89.550949 77.335251,88.790802 77.650192,88.230331 78.210678C87.669846 78.771149,87.354904 79.531296,87.354904 80.323990C87.354904 81.116684,87.669846 81.876831,88.230331 82.437302C88.790802 82.997787,89.550949 83.312729,90.343643 83.312729C91.136337 83.312729,91.896484 82.997787,92.456955 82.437302C93.017441 81.876831,93.332382 81.116684,93.332382 80.323990Z" style="fill: rgb(100.000000%,100.000000%,100.000000%);stroke: none;"></path>
  <path d="M97.363312 108.562042C97.363312 107.769348,97.048370 107.009201,96.487885 106.448730C95.927414 105.888245,95.167267 105.573303,94.374573 105.573303C93.581879 105.573303,92.821732 105.888245,92.261261 106.448730C91.700775 107.009201,91.385834 107.769348,91.385834 108.562042C91.385834 109.354736,91.700775 110.114883,92.261261 110.675354C92.821732 111.235840,93.581879 111.550781,94.374573 111.550781C95.167267 111.550781,95.927414 111.235840,96.487885 110.675354C97.048370 110.114883,97.363312 109.354736,97.363312 108.562042Z" style="fill: rgb(100.000000%,100.000000%,100.000000%);stroke: none;"></path>
  <path d="M116.005188 8.694839C116.005188 7.902145,115.690247 7.141998,115.129761 6.581528C114.569290 6.021042,113.809143 5.706100,113.016449 5.706100C112.223755 5.706100,111.463608 6.021042,110.903137 6.581528C110.342651 7.141998,110.027710 7.902145,110.027710 8.694839C110.027710 9.487534,110.342651 10.247681,110.903137 10.808151C111.463608 11.368637,112.223755 11.683578,113.016449 11.683578C113.809143 11.683578,114.569290 11.368637,115.129761 10.808151C115.690247 10.247681,116.005188 9.487534,116.005188 8.694839Z" style="fill: rgb(100.000000%,100.000000%,100.000000%);stroke: none;"></path>
  <path d="M90.426514 60.375397C90.426514 59.582703,90.111572 58.822556,89.551086 58.262085C88.990616 57.701599,88.230469 57.386658,87.437775 57.386658C86.645081 57.386658,85.884933 57.701599,85.324463 58.262085C84.763977 58.822556,84.449036 59.582703,84.449036 60.375397C84.449036 61.168091,84.763977 61.928238,85.324463 62.488708C85.884933 63.049194,86.645081 63.364136,87.437775 63.364136C88.230469 63.364136,88.990616 63.049194,89.551086 62.488708C90.111572 61.928238,90.426514 61.168091,90.426514 60.375397Z" style="fill: rgb(100.000000%,100.000000%,100.000000%);stroke: none;"></path>
  <path d="M219.527817 55.929047C219.527817 55.136353,219.212875 54.376205,218.652390 53.815735C218.091919 53.255249,217.331772 52.940308,216.539078 52.940308C215.746384 52.940308,214.986237 53.255249,214.425766 53.815735C213.865280 54.376205,213.550339 55.136353,213.550339 55.929047C213.550339 56.721741,213.865280 57.481888,214.425766 58.042358C214.986237 58.602844,215.746384 58.917786,216.539078 58.917786C217.331772 58.917786,218.091919 58.602844,218.652390 58.042358C219.212875 57.481888,219.527817 56.721741,219.527817 55.929047Z" style="fill: rgb(100.000000%,100.000000%,100.000000%);stroke: none;"></path>
  <path d="M162.447418 2.280304C162.447418 1.487610,162.132477 0.727463,161.571991 0.166992C161.011520 -0.393494,160.251373 -0.708435,159.458679 -0.708435C158.665985 -0.708435,157.905838 -0.393494,157.345367 0.166992C156.784882 0.727463,156.469940 1.487610,156.469940 2.280304C156.469940 3.072998,156.784882 3.833145,157.345367 4.393616C157.905838 4.954102,158.665985 5.269043,159.458679 5.269043C160.251373 5.269043,161.011520 4.954102,161.571991 4.393616C162.132477 3.833145,162.447418 3.072998,162.447418 2.280304Z" style="fill: rgb(100.000000%,100.000000%,100.000000%);stroke: none;"></path>
  <path d="M167.711777 130.502014C167.711777 129.709320,167.396835 128.949173,166.836349 128.388702C166.275879 127.828217,165.515732 127.513275,164.723038 127.513275C163.930344 127.513275,163.170197 127.828217,162.609726 128.388702C162.049240 128.949173,161.734299 129.709320,161.734299 130.502014C161.734299 131.294708,162.049240 132.054855,162.609726 132.615326C163.170197 133.175812,163.930344 133.490753,164.723038 133.490753C165.515732 133.490753,166.275879 133.175812,166.836349 132.615326C167.396835 132.054855,167.711777 131.294708,167.711777 130.502014Z" style="fill: rgb(100.000000%,100.000000%,100.000000%);stroke: none;"></path>
  <path d="M216.722717 101.352783C216.722717 100.560089,216.407776 99.799942,215.847290 99.239471C215.286819 98.678986,214.526672 98.364044,213.733978 98.364044C212.941284 98.364044,212.181137 98.678986,211.620667 99.239471C211.060181 99.799942,210.745239 100.560089,210.745239 101.352783C210.745239 102.145477,211.060181 102.905624,211.620667 103.466095C212.181137 104.026581,212.941284 104.341522,213.733978 104.341522C214.526672 104.341522,215.286819 104.026581,215.847290 103.466095C216.407776 102.905624,216.722717 102.145477,216.722717 101.352783Z" style="fill: rgb(100.000000%,100.000000%,100.000000%);stroke: none;"></path>
  <path d="M117.939056 127.307922C117.939056 126.515228,117.624115 125.755081,117.063629 125.194611C116.503159 124.634125,115.743011 124.319183,114.950317 124.319183C114.157623 124.319183,113.397476 124.634125,112.837006 125.194611C112.276520 125.755081,111.961578 126.515228,111.961578 127.307922C111.961578 128.100616,112.276520 128.860764,112.837006 129.421234C113.397476 129.981720,114.157623 130.296661,114.950317 130.296661C115.743011 130.296661,116.503159 129.981720,117.063629 129.421234C117.624115 128.860764,117.939056 128.100616,117.939056 127.307922Z" style="fill: rgb(100.000000%,100.000000%,100.000000%);stroke: none;"></path>
  <path d="M147.087234 128.470032C147.087234 127.677338,146.772293 126.917191,146.211807 126.356720C145.651337 125.796234,144.891190 125.481293,144.098495 125.481293C143.305801 125.481293,142.545654 125.796234,141.985184 126.356720C141.424698 126.917191,141.109756 127.677338,141.109756 128.470032C141.109756 129.262726,141.424698 130.022873,141.985184 130.583344C142.545654 131.143829,143.305801 131.458771,144.098495 131.458771C144.891190 131.458771,145.651337 131.143829,146.211807 130.583344C146.772293 130.022873,147.087234 129.262726,147.087234 128.470032Z" style="fill: rgb(100.000000%,100.000000%,100.000000%);stroke: none;"></path>
  <path d="M91.909409 126.781754C91.909409 125.989059,91.594467 125.228912,91.033981 124.668442C90.473511 124.107956,89.713364 123.793015,88.920670 123.793015C88.127975 123.793015,87.367828 124.107956,86.807358 124.668442C86.246872 125.228912,85.931931 125.989059,85.931931 126.781754C85.931931 127.574448,86.246872 128.334595,86.807358 128.895065C87.367828 129.455551,88.127975 129.770493,88.920670 129.770493C89.713364 129.770493,90.473511 129.455551,91.033981 128.895065C91.594467 128.334595,91.909409 127.574448,91.909409 126.781754Z" style="fill: rgb(100.000000%,100.000000%,100.000000%);stroke: none;"></path>
  <path d="M108.460266 127.291992C108.460266 126.499298,108.145325 125.739151,107.584839 125.178680C107.024368 124.618195,106.264221 124.303253,105.471527 124.303253C104.678833 124.303253,103.918686 124.618195,103.358215 125.178680C102.797729 125.739151,102.482788 126.499298,102.482788 127.291992C102.482788 128.084686,102.797729 128.844833,103.358215 129.405304C103.918686 129.965790,104.678833 130.280731,105.471527 130.280731C106.264221 130.280731,107.024368 129.965790,107.584839 129.405304C108.145325 128.844833,108.460266 128.084686,108.460266 127.291992Z" style="fill: rgb(100.000000%,100.000000%,100.000000%);stroke: none;"></path>
  <path d="M63.000549 134.963470C63.000549 134.170776,62.685608 133.410629,62.125122 132.850159C61.564651 132.289673,60.804504 131.974731,60.011810 131.974731C59.219116 131.974731,58.458969 132.289673,57.898499 132.850159C57.338013 133.410629,57.023071 134.170776,57.023071 134.963470C57.023071 135.756165,57.338013 136.516312,57.898499 137.076782C58.458969 137.637268,59.219116 137.952209,60.011810 137.952209C60.804504 137.952209,61.564651 137.637268,62.125122 137.076782C62.685608 136.516312,63.000549 135.756165,63.000549 134.963470Z" style="fill: rgb(100.000000%,100.000000%,100.000000%);stroke: none;"></path>
  <path d="M84.668686 126.441544C84.668686 125.648849,84.353745 124.888702,83.793259 124.328232C83.232788 123.767746,82.472641 123.452805,81.679947 123.452805C80.887253 123.452805,80.127106 123.767746,79.566635 124.328232C79.006149 124.888702,78.691208 125.648849,78.691208 126.441544C78.691208 127.234238,79.006149 127.994385,79.566635 128.554855C80.127106 129.115341,80.887253 129.430283,81.679947 129.430283C82.472641 129.430283,83.232788 129.115341,83.793259 128.554855C84.353745 127.994385,84.668686 127.234238,84.668686 126.441544Z" style="fill: rgb(100.000000%,100.000000%,100.000000%);stroke: none;"></path>
  <path d="M66.985870 203.305984C66.985870 202.513290,66.670929 201.753143,66.110443 201.192673C65.549973 200.632187,64.789825 200.317245,63.997131 200.317245C63.204437 200.317245,62.444290 200.632187,61.883820 201.192673C61.323334 201.753143,61.008392 202.513290,61.008392 203.305984C61.008392 204.098679,61.323334 204.858826,61.883820 205.419296C62.444290 205.979782,63.204437 206.294724,63.997131 206.294724C64.789825 206.294724,65.549973 205.979782,66.110443 205.419296C66.670929 204.858826,66.985870 204.098679,66.985870 203.305984Z" style="fill: rgb(100.000000%,100.000000%,100.000000%);stroke: none;"></path>
  <path d="M56.365112 152.121078C56.365112 151.328384,56.050171 150.568237,55.489685 150.007767C54.929214 149.447281,54.169067 149.132339,53.376373 149.132339C52.583679 149.132339,51.823532 149.447281,51.263062 150.007767C50.702576 150.568237,50.387634 151.328384,50.387634 152.121078C50.387634 152.913773,50.702576 153.673920,51.263062 154.234390C51.823532 154.794876,52.583679 155.109818,53.376373 155.109818C54.169067 155.109818,54.929214 154.794876,55.489685 154.234390C56.050171 153.673920,56.365112 152.913773,56.365112 152.121078Z" style="fill: rgb(100.000000%,100.000000%,100.000000%);stroke: none;"></path>
  <path d="M184.296921 195.080688C184.296921 194.287994,183.981979 193.527847,183.421494 192.967377C182.861023 192.406891,182.100876 192.091949,181.308182 192.091949C180.515488 192.091949,179.755341 192.406891,179.194870 192.967377C178.634384 193.527847,178.319443 194.287994,178.319443 195.080688C178.319443 195.873383,178.634384 196.633530,179.194870 197.194000C179.755341 197.754486,180.515488 198.069427,181.308182 198.069427C182.100876 198.069427,182.861023 197.754486,183.421494 197.194000C183.981979 196.633530,184.296921 195.873383,184.296921 195.080688Z" style="fill: rgb(100.000000%,100.000000%,100.000000%);stroke: none;"></path>
  <path d="M106.795685 219.407684C106.795685 218.614990,106.480743 217.854843,105.920258 217.294373C105.359787 216.733887,104.599640 216.418945,103.806946 216.418945C103.014252 216.418945,102.254105 216.733887,101.693634 217.294373C101.133148 217.854843,100.818207 218.614990,100.818207 219.407684C100.818207 220.200378,101.133148 220.960526,101.693634 221.520996C102.254105 222.081482,103.014252 222.396423,103.806946 222.396423C104.599640 222.396423,105.359787 222.081482,105.920258 221.520996C106.480743 220.960526,106.795685 220.200378,106.795685 219.407684Z" style="fill: rgb(100.000000%,100.000000%,100.000000%);stroke: none;"></path>
  <path d="M173.362305 104.182770C173.362305 103.390076,173.047363 102.629929,172.486877 102.069458C171.926407 101.508972,171.166260 101.194031,170.373566 101.194031C169.580872 101.194031,168.820724 101.508972,168.260254 102.069458C167.699768 102.629929,167.384827 103.390076,167.384827 104.182770C167.384827 104.975464,167.699768 105.735611,168.260254 106.296082C168.820724 106.856567,169.580872 107.171509,170.373566 107.171509C171.166260 107.171509,171.926407 106.856567,172.486877 106.296082C173.047363 105.735611,173.362305 104.975464,173.362305 104.182770Z" style="fill: rgb(100.000000%,100.000000%,100.000000%);stroke: none;"></path>
  <path d="M206.600220 151.776276C206.600220 150.983582,206.285278 150.223434,205.724792 149.662964C205.164322 149.102478,204.404175 148.787537,203.611481 148.787537C202.818787 148.787537,202.058640 149.102478,201.498169 149.662964C200.937683 150.223434,200.622742 150.983582,200.622742 151.776276C200.622742 152.568970,200.937683 153.329117,201.498169 153.889587C202.058640 154.450073,202.818787 154.765015,203.611481 154.765015C204.404175 154.765015,205.164322 154.450073,205.724792 153.889587C206.285278 153.329117,206.600220 152.568970,206.600220 151.776276Z" style="fill: rgb(100.000000%,100.000000%,100.000000%);stroke: none;"></path>
  <path d="M122.981827 73.330338C122.981827 72.537643,122.666885 71.777496,122.106400 71.217026C121.545929 70.656540,120.785782 70.341599,119.993088 70.341599C119.200394 70.341599,118.440247 70.656540,117.879776 71.217026C117.319290 71.777496,117.004349 72.537643,117.004349 73.330338C117.004349 74.123032,117.319290 74.883179,117.879776 75.443649C118.440247 76.004135,119.200394 76.319077,119.993088 76.319077C120.785782 76.319077,121.545929 76.004135,122.106400 75.443649C122.666885 74.883179,122.981827 74.123032,122.981827 73.330338Z" style="fill: rgb(100.000000%,100.000000%,100.000000%);stroke: none;"></path>
  <path d="M152.212173 99.293396C152.212173 98.500702,151.897232 97.740555,151.336746 97.180084C150.776276 96.619598,150.016129 96.304657,149.223434 96.304657C148.430740 96.304657,147.670593 96.619598,147.110123 97.180084C146.549637 97.740555,146.234695 98.500702,146.234695 99.293396C146.234695 100.086090,146.549637 100.846237,147.110123 101.406708C147.670593 101.967194,148.430740 102.282135,149.223434 102.282135C150.016129 102.282135,150.776276 101.967194,151.336746 101.406708C151.897232 100.846237,152.212173 100.086090,152.212173 99.293396Z" style="fill: rgb(100.000000%,100.000000%,100.000000%);stroke: none;"></path>
  <path d="M64.969208 22.563126C64.969208 21.770432,64.654266 21.010284,64.093781 20.449814C63.533310 19.889328,62.773163 19.574387,61.980469 19.574387C61.187775 19.574387,60.427628 19.889328,59.867157 20.449814C59.306671 21.010284,58.991730 21.770432,58.991730 22.563126C58.991730 23.355820,59.306671 24.115967,59.867157 24.676437C60.427628 25.236923,61.187775 25.551865,61.980469 25.551865C62.773163 25.551865,63.533310 25.236923,64.093781 24.676437C64.654266 24.115967,64.969208 23.355820,64.969208 22.563126Z" style="fill: rgb(100.000000%,100.000000%,100.000000%);stroke: none;"></path>
  <path d="M115.788040 53.205246C115.788040 52.412552,115.473099 51.652405,114.912613 51.091934C114.352142 50.531448,113.591995 50.216507,112.799301 50.216507C112.006607 50.216507,111.246460 50.531448,110.685989 51.091934C110.125504 51.652405,109.810562 52.412552,109.810562 53.205246C109.810562 53.997940,110.125504 54.758087,110.685989 55.318558C111.246460 55.879044,112.006607 56.193985,112.799301 56.193985C113.591995 56.193985,114.352142 55.879044,114.912613 55.318558C115.473099 54.758087,115.788040 53.997940,115.788040 53.205246Z" style="fill: rgb(100.000000%,100.000000%,100.000000%);stroke: none;"></path>
  <path d="M5.911896 125.536453C5.911896 124.743759,5.596954 123.983612,5.036469 123.423141C4.475998 122.862656,3.715851 122.547714,2.923157 122.547714C2.130463 122.547714,1.370316 122.862656,0.809845 123.423141C0.249359 123.983612,-0.065582 124.743759,-0.065582 125.536453C-0.065582 126.329147,0.249359 127.089294,0.809845 127.649765C1.370316 128.210251,2.130463 128.525192,2.923157 128.525192C3.715851 128.525192,4.475998 128.210251,5.036469 127.649765C5.596954 127.089294,5.911896 126.329147,5.911896 125.536453Z" style="fill: rgb(100.000000%,100.000000%,100.000000%);stroke: none;"></path>
  <path d="M21.218613 47.530334C21.218613 46.737640,20.903671 45.977493,20.343185 45.417023C19.782715 44.856537,19.022568 44.541595,18.229874 44.541595C17.437180 44.541595,16.677032 44.856537,16.116562 45.417023C15.556076 45.977493,15.241135 46.737640,15.241135 47.530334C15.241135 48.323029,15.556076 49.083176,16.116562 49.643646C16.677032 50.204132,17.437180 50.519073,18.229874 50.519073C19.022568 50.519073,19.782715 50.204132,20.343185 49.643646C20.903671 49.083176,21.218613 48.323029,21.218613 47.530334Z" style="fill: rgb(100.000000%,100.000000%,100.000000%);stroke: none;"></path>
  <path d="M78.061966 172.466278C78.061966 171.673584,77.747025 170.913437,77.186539 170.352966C76.626068 169.792480,75.865921 169.477539,75.073227 169.477539C74.280533 169.477539,73.520386 169.792480,72.959915 170.352966C72.399429 170.913437,72.084488 171.673584,72.084488 172.466278C72.084488 173.258972,72.399429 174.019119,72.959915 174.579590C73.520386 175.140076,74.280533 175.455017,75.073227 175.455017C75.865921 175.455017,76.626068 175.140076,77.186539 174.579590C77.747025 174.019119,78.061966 173.258972,78.061966 172.466278Z" style="fill: rgb(100.000000%,100.000000%,100.000000%);stroke: none;"></path>
  <path d="M25.586731 160.934418C25.586731 160.141724,25.271790 159.381577,24.711304 158.821106C24.150833 158.260620,23.390686 157.945679,22.597992 157.945679C21.805298 157.945679,21.045151 158.260620,20.484680 158.821106C19.924194 159.381577,19.609253 160.141724,19.609253 160.934418C19.609253 161.727112,19.924194 162.487259,20.484680 163.047729C21.045151 163.608215,21.805298 163.923157,22.597992 163.923157C23.390686 163.923157,24.150833 163.608215,24.711304 163.047729C25.271790 162.487259,25.586731 161.727112,25.586731 160.934418Z" style="fill: rgb(100.000000%,100.000000%,100.000000%);stroke: none;"></path>
  <path d="M95.562057 147.526657C96.154114 140.701233,96.300400 133.844467,96.000000 127.000000C95.593994 117.749390,94.374573 108.562042,93.066254 99.396805C90.343643 80.323990,87.437775 60.375397,96.000000 43.075806C113.016449 8.694839,159.458679 2.280304,188.362000 29.445969C216.539078 55.929047,213.733978 101.352783,181.701889 120.403854C164.723038 130.502014,144.098495 128.470032,124.418930 127.685425C114.950317 127.307922,105.471527 127.291992,96.000000 127.000000C88.920670 126.781754,81.679947 126.441544,75.073242 129.039917C60.011810 134.963470,53.376373 152.121078,56.763031 168.442459C63.997131 203.305984,103.806946 219.407684,140.234726 207.973312C181.308182 195.080688,203.611481 151.776276,181.701889 120.403854C170.373566 104.182770,149.223434 99.293396,134.562103 86.270859C119.993088 73.330338,112.799301 53.205246,96.000000 43.075806C61.980469 22.563126,18.229874 47.530334,9.834656 90.314026C2.923157 125.536453,22.597992 160.934418,56.763031 168.442459C75.073227 172.466278,94.112869 164.233444,95.562057 147.526657" style="stroke:rgb(0.000000%,0.000000%,0.000000%); stroke-width: 0.498138;stroke-linecap: round;stroke-linejoin: round;stroke-miterlimit: 10.000000;fill: none;"></path>
  <path d="M95.562057 147.526657C96.154114 140.701233,96.300400 133.844467,96.000000 127.000000C95.593994 117.749390,94.374573 108.562042,93.066254 99.396805C90.343643 80.323990,87.437775 60.375397,96.000000 43.075806" style="stroke:rgb(0.000000%,0.000000%,0.000000%); stroke-width: 1.494400;stroke-linecap: round;stroke-linejoin: round;stroke-miterlimit: 10.000000;fill: none;"></path>
  <path d="M56.763031 168.442459C75.073227 172.466278,94.112869 164.233444,95.562057 147.526657" style="stroke:rgb(0.000000%,0.000000%,0.000000%); stroke-width: 1.494400;stroke-linecap: round;stroke-linejoin: round;stroke-miterlimit: 10.000000;fill: none;"></path>
  <path d="M98.988739 127.000000C98.988739 126.207306,98.673798 125.447159,98.113312 124.886688C97.552841 124.326202,96.792694 124.011261,96.000000 124.011261C95.207306 124.011261,94.447159 124.326202,93.886688 124.886688C93.326202 125.447159,93.011261 126.207306,93.011261 127.000000C93.011261 127.792694,93.326202 128.552841,93.886688 129.113312C94.447159 129.673798,95.207306 129.988739,96.000000 129.988739C96.792694 129.988739,97.552841 129.673798,98.113312 129.113312C98.673798 128.552841,98.988739 127.792694,98.988739 127.000000Z" style="fill: rgb(100.000000%,100.000000%,100.000000%);stroke: none;"></path>
  <path d="M96.115707 137.270462C96.188721 133.847534,96.150192 130.422226,96.000000 127.000000C95.796997 122.374695,95.390640 117.765198,94.871490 113.166382" style="stroke:rgb(0.000000%,0.000000%,0.000000%); stroke-width: 1.494400;stroke-linecap: round;stroke-linejoin: round;stroke-miterlimit: 10.000000;fill: none;"></path>
  <path d="M184.690628 120.403854C184.690628 119.611160,184.375687 118.851013,183.815201 118.290543C183.254730 117.730057,182.494583 117.415115,181.701889 117.415115C180.909195 117.415115,180.149048 117.730057,179.588577 118.290543C179.028091 118.851013,178.713150 119.611160,178.713150 120.403854C178.713150 121.196548,179.028091 121.956696,179.588577 122.517166C180.149048 123.077652,180.909195 123.392593,181.701889 123.392593C182.494583 123.392593,183.254730 123.077652,183.815201 122.517166C184.375687 121.956696,184.690628 121.196548,184.690628 120.403854Z" style="fill: rgb(100.000000%,100.000000%,100.000000%);stroke: none;"></path>
  <path d="M207.610367 77.711929C206.427216 94.759628,197.717926 110.878326,181.701889 120.403854C173.212463 125.452942,163.811615 127.469482,154.073166 128.125687" style="stroke:rgb(0.000000%,0.000000%,0.000000%); stroke-width: 0.498138;stroke-linecap: round;stroke-linejoin: round;stroke-miterlimit: 10.000000;fill: none;"></path>
  <path d="M59.751770 168.442459C59.751770 167.649765,59.436829 166.889618,58.876343 166.329147C58.315872 165.768661,57.555725 165.453720,56.763031 165.453720C55.970337 165.453720,55.210190 165.768661,54.649719 166.329147C54.089233 166.889618,53.774292 167.649765,53.774292 168.442459C53.774292 169.235153,54.089233 169.995300,54.649719 170.555771C55.210190 171.116257,55.970337 171.431198,56.763031 171.431198C57.555725 171.431198,58.315872 171.116257,58.876343 170.555771C59.436829 169.995300,59.751770 169.235153,59.751770 168.442459Z" style="fill: rgb(100.000000%,100.000000%,100.000000%);stroke: none;"></path>
  <path d="M59.000092 144.842010C55.881897 151.912033,55.069702 160.281769,56.763031 168.442459C60.380081 185.874222,72.141068 198.615540,87.551254 205.569611" style="stroke:rgb(0.000000%,0.000000%,0.000000%); stroke-width: 0.498138;stroke-linecap: round;stroke-linejoin: round;stroke-miterlimit: 10.000000;fill: none;"></path>
  <path d="M98.988739 43.075806C98.988739 42.283112,98.673798 41.522964,98.113312 40.962494C97.552841 40.402008,96.792694 40.087067,96.000000 40.087067C95.207306 40.087067,94.447159 40.402008,93.886688 40.962494C93.326202 41.522964,93.011261 42.283112,93.011261 43.075806C93.011261 43.868500,93.326202 44.628647,93.886688 45.189117C94.447159 45.749603,95.207306 46.064545,96.000000 46.064545C96.792694 46.064545,97.552841 45.749603,98.113312 45.189117C98.673798 44.628647,98.988739 43.868500,98.988739 43.075806Z" style="fill: rgb(100.000000%,100.000000%,100.000000%);stroke: none;"></path>
  <path d="M116.117401 63.619171C110.397919 55.704147,104.399643 48.140518,96.000000 43.075806C78.990234 32.819458,59.547699 33.933105,43.308197 42.958786" style="stroke:rgb(0.000000%,0.000000%,0.000000%); stroke-width: 0.498138;stroke-linecap: round;stroke-linejoin: round;stroke-miterlimit: 10.000000;fill: none;"></path>
  <path d="M95.562057 147.526657C96.035706 142.066299,96.224060 136.585876,96.126648 131.107742" style="stroke:rgb(0.000000%,0.000000%,0.000000%); stroke-width: 0.498138;stroke-linecap: round;stroke-linejoin: round;stroke-miterlimit: 10.000000;fill: none;"></path>
  <path d="M98.048965 135.723541C97.432709 134.175018,96.791855 132.636230,96.126648 131.107742C95.516190 132.658905,94.881226 134.200134,94.222000 135.730865Z" style="stroke:rgb(0.000000%,0.000000%,0.000000%); stroke-width: 0.498138;fill: rgb(0.000000%,0.000000%,0.000000%);"></path>
  <path d="M95.562057 147.526657C96.035706 142.066299,96.224060 136.585876,96.126648 131.107742" style="stroke:rgb(0.000000%,0.000000%,0.000000%); stroke-width: 0.498138;stroke-linecap: round;stroke-linejoin: round;stroke-miterlimit: 10.000000;fill: none;"></path>
  <path d="M97.297531 133.869705C96.916031 132.945419,96.525711 132.024719,96.126648 131.107742C95.760422 132.038330,95.385361 132.965347,95.001541 133.888657Z" style="stroke:rgb(0.000000%,0.000000%,0.000000%); stroke-width: 0.498138;fill: rgb(0.000000%,0.000000%,0.000000%);"></path>
  <path d="M124.418930 127.685425C116.844009 127.383423,109.262589 127.312836,101.683563 127.147171" style="stroke:rgb(0.000000%,0.000000%,0.000000%); stroke-width: 0.498138;stroke-linecap: round;stroke-linejoin: round;stroke-miterlimit: 10.000000;fill: none;"></path>
  <path d="M104.478104 126.056000L101.683563 127.147171L104.431168 128.351685Z" style="stroke:rgb(0.000000%,0.000000%,0.000000%); stroke-width: 0.498138;fill: rgb(0.000000%,0.000000%,0.000000%);"></path>
  <path d="M75.073242 129.039917C63.024048 133.778778,56.367538 145.707489,55.920914 158.645996" style="stroke:rgb(0.000000%,0.000000%,0.000000%); stroke-width: 0.498138;stroke-linecap: round;stroke-linejoin: round;stroke-miterlimit: 10.000000;fill: none;"></path>
  <path d="M54.975250 155.798813C55.253052 156.754700,55.568527 157.704697,55.920914 158.645996C56.337357 157.731216,56.786041 156.836426,57.265533 155.964066Z" style="stroke:rgb(0.000000%,0.000000%,0.000000%); stroke-width: 0.498138;fill: rgb(0.000000%,0.000000%,0.000000%);"></path>
  <path d="M134.562103 86.270859C122.906845 75.918396,115.971771 60.967789,105.062637 50.215393" style="stroke:rgb(0.000000%,0.000000%,0.000000%); stroke-width: 0.498138;stroke-linecap: round;stroke-linejoin: round;stroke-miterlimit: 10.000000;fill: none;"></path>
  <path d="M107.815140 51.408142C106.905579 50.989685,105.988510 50.591049,105.062637 50.215393C105.451675 51.135727,105.818237 52.066071,106.165512 53.005127Z" style="stroke:rgb(0.000000%,0.000000%,0.000000%); stroke-width: 0.498138;fill: rgb(0.000000%,0.000000%,0.000000%);"></path>
  <path d="M90.075607 102.107010L96.056900 102.107010L96.056900 94.686615L90.075607 94.686615Z" style="fill: rgb(100.000000%,100.000000%,100.000000%);stroke: none;"></path>
  <path d="M90.075607 104.107010L96.056900 104.107010L96.056900 96.686615L90.075607 96.686615Z" style="fill: rgb(100.000000%,100.000000%,100.000000%);stroke: none;"></path>
  <g transform="translate(90.575607 102.607010)" style="fill: rgb(0.000000%,0.000000%,0.000000%);">
    <use xlink:href="#GLYPHcmr10_49"></use>
  </g>
  <path d="M185.371353 32.156174L191.352646 32.156174L191.352646 24.735779L185.371353 24.735779Z" style="fill: rgb(100.000000%,100.000000%,100.000000%);stroke: none;"></path>
  <path d="M185.371353 34.156174L191.352646 34.156174L191.352646 26.735779L185.371353 26.735779Z" style="fill: rgb(100.000000%,100.000000%,100.000000%);stroke: none;"></path>
  <g transform="translate(185.871353 32.656174)" style="fill: rgb(0.000000%,0.000000%,0.000000%);">
    <use xlink:href="#GLYPHcmr10_50"></use>
  </g>
  <path d="M137.244080 210.683517L143.225372 210.683517L143.225372 203.263123L137.244080 203.263123Z" style="fill: rgb(100.000000%,100.000000%,100.000000%);stroke: none;"></path>
  <path d="M137.244080 212.683517L143.225372 212.683517L143.225372 205.263123L137.244080 205.263123Z" style="fill: rgb(100.000000%,100.000000%,100.000000%);stroke: none;"></path>
  <g transform="translate(137.744080 211.183517)" style="fill: rgb(0.000000%,0.000000%,0.000000%);">
    <use xlink:href="#GLYPHcmr10_51"></use>
  </g>
  <path d="M6.844009 93.024231L12.825302 93.024231L12.825302 85.603836L6.844009 85.603836Z" style="fill: rgb(100.000000%,100.000000%,100.000000%);stroke: none;"></path>
  <path d="M6.844009 95.024231L12.825302 95.024231L12.825302 87.603836L6.844009 87.603836Z" style="fill: rgb(100.000000%,100.000000%,100.000000%);stroke: none;"></path>
  <g transform="translate(7.344009 93.524231)" style="fill: rgb(0.000000%,0.000000%,0.000000%);">
    <use xlink:href="#GLYPHcmr10_52"></use>
  </g>
</svg>
