<?xml version="1.0"?>
<!-- Created by MetaPost 1.999 on 2021.07.06:0008 -->
<svg version="1.1" xmlns="http://www.w3.org/2000/svg" xmlns:xlink="http://www.w3.org/1999/xlink" width="194.753372" height="191.657059" viewBox="0 0 194.753372 191.657059">
<!-- Original BoundingBox: -41.531754 -51.269180 153.221619 140.387878 -->
  <defs>
    <g transform="scale(0.009963,0.009963)" id="GLYPHcmr10_49">
      <path style="fill-rule: evenodd;" d="M294.000000 -640.000000C294.000000 -664.000000,294.000000 -666.000000,271.000000 -666.000000C209.000000 -602.000000,121.000000 -602.000000,89.000000 -602.000000L89.000000 -571.000000C109.000000 -571.000000,168.000000 -571.000000,220.000000 -597.000000L220.000000 -79.000000C220.000000 -43.000000,217.000000 -31.000000,127.000000 -31.000000L95.000000 -31.000000L95.000000 -0.000000L257.000000 -0.000000L130.000000 -3.000000L217.000000 -3.000000L257.000000 -3.000000L297.000000 -3.000000L384.000000 -3.000000L419.000000 -0.000000L419.000000 -31.000000L387.000000 -31.000000C297.000000 -31.000000,294.000000 -42.000000,294.000000 -79.000000"></path>
    </g>
    <g transform="scale(0.009963,0.009963)" id="GLYPHcmr10_50">
      <path style="fill-rule: evenodd;" d="M127.000000 -77.000000L233.000000 -180.000000C389.000000 -318.000000,449.000000 -372.000000,449.000000 -472.000000C449.000000 -586.000000,359.000000 -666.000000,237.000000 -666.000000C124.000000 -666.000000,50.000000 -574.000000,50.000000 -485.000000C50.000000 -429.000000,100.000000 -429.000000,103.000000 -429.000000C120.000000 -429.000000,155.000000 -441.000000,155.000000 -482.000000C155.000000 -508.000000,137.000000 -534.000000,102.000000 -534.000000C94.000000 -534.000000,92.000000 -534.000000,89.000000 -533.000000C112.000000 -598.000000,166.000000 -635.000000,224.000000 -635.000000C315.000000 -635.000000,358.000000 -554.000000,358.000000 -472.000000C358.000000 -392.000000,308.000000 -313.000000,253.000000 -251.000000L61.000000 -37.000000C50.000000 -26.000000,50.000000 -24.000000,50.000000 -0.000000L421.000000 -0.000000L449.000000 -174.000000L424.000000 -174.000000C419.000000 -144.000000,412.000000 -100.000000,402.000000 -85.000000C395.000000 -77.000000,329.000000 -77.000000,307.000000 -77.000000"></path>
    </g>
    <g transform="scale(0.009963,0.009963)" id="GLYPHcmr10_51">
      <path style="fill-rule: evenodd;" d="M290.000000 -352.000000C372.000000 -379.000000,430.000000 -449.000000,430.000000 -528.000000C430.000000 -610.000000,342.000000 -666.000000,246.000000 -666.000000C145.000000 -666.000000,69.000000 -606.000000,69.000000 -530.000000C69.000000 -497.000000,91.000000 -478.000000,120.000000 -478.000000C151.000000 -478.000000,171.000000 -500.000000,171.000000 -529.000000C171.000000 -579.000000,124.000000 -579.000000,109.000000 -579.000000C140.000000 -628.000000,206.000000 -641.000000,242.000000 -641.000000C283.000000 -641.000000,338.000000 -619.000000,338.000000 -529.000000C338.000000 -517.000000,336.000000 -459.000000,310.000000 -415.000000C280.000000 -367.000000,246.000000 -364.000000,221.000000 -363.000000C213.000000 -362.000000,189.000000 -360.000000,182.000000 -360.000000C174.000000 -359.000000,167.000000 -358.000000,167.000000 -348.000000C167.000000 -337.000000,174.000000 -337.000000,191.000000 -337.000000L235.000000 -337.000000C317.000000 -337.000000,354.000000 -269.000000,354.000000 -171.000000C354.000000 -35.000000,285.000000 -6.000000,241.000000 -6.000000C198.000000 -6.000000,123.000000 -23.000000,88.000000 -82.000000C123.000000 -77.000000,154.000000 -99.000000,154.000000 -137.000000C154.000000 -173.000000,127.000000 -193.000000,98.000000 -193.000000C74.000000 -193.000000,42.000000 -179.000000,42.000000 -135.000000C42.000000 -44.000000,135.000000 22.000000,244.000000 22.000000C366.000000 22.000000,457.000000 -69.000000,457.000000 -171.000000C457.000000 -253.000000,394.000000 -331.000000,290.000000 -352.000000"></path>
    </g>
    <g transform="scale(0.009963,0.009963)" id="GLYPHcmr10_52">
      <path style="fill-rule: evenodd;" d="M294.000000 -165.000000L294.000000 -78.000000C294.000000 -42.000000,292.000000 -31.000000,218.000000 -31.000000L197.000000 -31.000000L197.000000 -0.000000L332.000000 -0.000000L238.000000 -3.000000L290.000000 -3.000000L332.000000 -3.000000L374.000000 -3.000000L427.000000 -3.000000L468.000000 -0.000000L468.000000 -31.000000L447.000000 -31.000000C373.000000 -31.000000,371.000000 -42.000000,371.000000 -78.000000L371.000000 -165.000000L471.000000 -165.000000L471.000000 -196.000000L371.000000 -196.000000L371.000000 -651.000000C371.000000 -671.000000,371.000000 -677.000000,355.000000 -677.000000C346.000000 -677.000000,343.000000 -677.000000,335.000000 -665.000000L28.000000 -196.000000L28.000000 -165.000000M300.000000 -196.000000L56.000000 -196.000000L300.000000 -569.000000"></path>
    </g>
    <g transform="scale(0.009963,0.009963)" id="GLYPHcmr10_53">
      <path style="fill-rule: evenodd;" d="M449.000000 -201.000000C449.000000 -320.000000,367.000000 -420.000000,259.000000 -420.000000C211.000000 -420.000000,168.000000 -404.000000,132.000000 -369.000000L132.000000 -564.000000C152.000000 -558.000000,185.000000 -551.000000,217.000000 -551.000000C340.000000 -551.000000,410.000000 -642.000000,410.000000 -655.000000C410.000000 -661.000000,407.000000 -666.000000,400.000000 -666.000000C399.000000 -666.000000,397.000000 -666.000000,392.000000 -663.000000C372.000000 -654.000000,323.000000 -634.000000,256.000000 -634.000000C216.000000 -634.000000,170.000000 -641.000000,123.000000 -662.000000C115.000000 -665.000000,113.000000 -665.000000,111.000000 -665.000000C101.000000 -665.000000,101.000000 -657.000000,101.000000 -641.000000L101.000000 -345.000000C101.000000 -327.000000,101.000000 -319.000000,115.000000 -319.000000C122.000000 -319.000000,124.000000 -322.000000,128.000000 -328.000000C139.000000 -344.000000,176.000000 -398.000000,257.000000 -398.000000C309.000000 -398.000000,334.000000 -352.000000,342.000000 -334.000000C358.000000 -297.000000,360.000000 -258.000000,360.000000 -208.000000C360.000000 -173.000000,360.000000 -113.000000,336.000000 -71.000000C312.000000 -32.000000,275.000000 -6.000000,229.000000 -6.000000C156.000000 -6.000000,99.000000 -59.000000,82.000000 -118.000000C85.000000 -117.000000,88.000000 -116.000000,99.000000 -116.000000C132.000000 -116.000000,149.000000 -141.000000,149.000000 -165.000000C149.000000 -189.000000,132.000000 -214.000000,99.000000 -214.000000C85.000000 -214.000000,50.000000 -207.000000,50.000000 -161.000000C50.000000 -75.000000,119.000000 22.000000,231.000000 22.000000C347.000000 22.000000,449.000000 -74.000000,449.000000 -201.000000"></path>
    </g>
  </defs>
  <path d="M55.811966 186.970596C55.811966 186.177902,55.497025 185.417755,54.936539 184.857285C54.376068 184.296799,53.615921 183.981857,52.823227 183.981857C52.030533 183.981857,51.270386 184.296799,50.709915 184.857285C50.149429 185.417755,49.834488 186.177902,49.834488 186.970596C49.834488 187.763290,50.149429 188.523438,50.709915 189.083908C51.270386 189.644394,52.030533 189.959335,52.823227 189.959335C53.615921 189.959335,54.376068 189.644394,54.936539 189.083908C55.497025 188.523438,55.811966 187.763290,55.811966 186.970596Z" style="fill: rgb(100.000000%,100.000000%,100.000000%);stroke: none;"></path>
  <path d="M80.392975 186.558975C80.392975 185.766281,80.078033 185.006134,79.517548 184.445663C78.957077 183.885178,78.196930 183.570236,77.404236 183.570236C76.611542 183.570236,75.851395 183.885178,75.290924 184.445663C74.730438 185.006134,74.415497 185.766281,74.415497 186.558975C74.415497 187.351669,74.730438 188.111816,75.290924 188.672287C75.851395 189.232773,76.611542 189.547714,77.404236 189.547714C78.196930 189.547714,78.957077 189.232773,79.517548 188.672287C80.078033 188.111816,80.392975 187.351669,80.392975 186.558975Z" style="fill: rgb(100.000000%,100.000000%,100.000000%);stroke: none;"></path>
  <path d="M48.302933 123.804291C48.302933 123.011597,47.987991 122.251450,47.427505 121.690979C46.867035 121.130493,46.106888 120.815552,45.314194 120.815552C44.521500 120.815552,43.761353 121.130493,43.200882 121.690979C42.640396 122.251450,42.325455 123.011597,42.325455 123.804291C42.325455 124.596985,42.640396 125.357132,43.200882 125.917603C43.761353 126.478088,44.521500 126.793030,45.314194 126.793030C46.106888 126.793030,46.867035 126.478088,47.427505 125.917603C47.987991 125.357132,48.302933 124.596985,48.302933 123.804291Z" style="fill: rgb(100.000000%,100.000000%,100.000000%);stroke: none;"></path>
  <path d="M37.660629 163.756073C37.660629 162.963379,37.345688 162.203232,36.785202 161.642761C36.224731 161.082275,35.464584 160.767334,34.671890 160.767334C33.879196 160.767334,33.119049 161.082275,32.558578 161.642761C31.998093 162.203232,31.683151 162.963379,31.683151 163.756073C31.683151 164.548767,31.998093 165.308914,32.558578 165.869385C33.119049 166.429871,33.879196 166.744812,34.671890 166.744812C35.464584 166.744812,36.224731 166.429871,36.785202 165.869385C37.345688 165.308914,37.660629 164.548767,37.660629 163.756073Z" style="fill: rgb(100.000000%,100.000000%,100.000000%);stroke: none;"></path>
  <path d="M63.482483 78.364120C63.482483 77.571426,63.167542 76.811279,62.607056 76.250809C62.046585 75.690323,61.286438 75.375381,60.493744 75.375381C59.701050 75.375381,58.940903 75.690323,58.380432 76.250809C57.819946 76.811279,57.505005 77.571426,57.505005 78.364120C57.505005 79.156815,57.819946 79.916962,58.380432 80.477432C58.940903 81.037918,59.701050 81.352859,60.493744 81.352859C61.286438 81.352859,62.046585 81.037918,62.607056 80.477432C63.167542 79.916962,63.482483 79.156815,63.482483 78.364120Z" style="fill: rgb(100.000000%,100.000000%,100.000000%);stroke: none;"></path>
  <path d="M64.682144 112.009995C64.682144 111.217300,64.367203 110.457153,63.806717 109.896683C63.246246 109.336197,62.486099 109.021255,61.693405 109.021255C60.900711 109.021255,60.140564 109.336197,59.580093 109.896683C59.019608 110.457153,58.704666 111.217300,58.704666 112.009995C58.704666 112.802689,59.019608 113.562836,59.580093 114.123306C60.140564 114.683792,60.900711 114.998734,61.693405 114.998734C62.486099 114.998734,63.246246 114.683792,63.806717 114.123306C64.367203 113.562836,64.682144 112.802689,64.682144 112.009995Z" style="fill: rgb(100.000000%,100.000000%,100.000000%);stroke: none;"></path>
  <path d="M40.230484 31.335129C40.230484 30.542435,39.915543 29.782288,39.355057 29.221817C38.794586 28.661331,38.034439 28.346390,37.241745 28.346390C36.449051 28.346390,35.688904 28.661331,35.128433 29.221817C34.567947 29.782288,34.253006 30.542435,34.253006 31.335129C34.253006 32.127823,34.567947 32.887970,35.128433 33.448441C35.688904 34.008926,36.449051 34.323868,37.241745 34.323868C38.034439 34.323868,38.794586 34.008926,39.355057 33.448441C39.915543 32.887970,40.230484 32.127823,40.230484 31.335129Z" style="fill: rgb(100.000000%,100.000000%,100.000000%);stroke: none;"></path>
  <path d="M47.008804 67.362442C47.008804 66.569748,46.693863 65.809601,46.133377 65.249130C45.572906 64.688644,44.812759 64.373703,44.020065 64.373703C43.227371 64.373703,42.467224 64.688644,41.906754 65.249130C41.346268 65.809601,41.031326 66.569748,41.031326 67.362442C41.031326 68.155136,41.346268 68.915283,41.906754 69.475754C42.467224 70.036240,43.227371 70.351181,44.020065 70.351181C44.812759 70.351181,45.572906 70.036240,46.133377 69.475754C46.693863 68.915283,47.008804 68.155136,47.008804 67.362442Z" style="fill: rgb(100.000000%,100.000000%,100.000000%);stroke: none;"></path>
  <path d="M96.474274 2.600861C96.474274 1.808167,96.159332 1.048019,95.598846 0.487549C95.038376 -0.072937,94.278229 -0.387878,93.485535 -0.387878C92.692841 -0.387878,91.932693 -0.072937,91.372223 0.487549C90.811737 1.048019,90.496796 1.808167,90.496796 2.600861C90.496796 3.393555,90.811737 4.153702,91.372223 4.714172C91.932693 5.274658,92.692841 5.589600,93.485535 5.589600C94.278229 5.589600,95.038376 5.274658,95.598846 4.714172C96.159332 4.153702,96.474274 3.393555,96.474274 2.600861Z" style="fill: rgb(100.000000%,100.000000%,100.000000%);stroke: none;"></path>
  <path d="M55.937958 13.643082C55.937958 12.850388,55.623016 12.090240,55.062531 11.529770C54.502060 10.969284,53.741913 10.654343,52.949219 10.654343C52.156525 10.654343,51.396378 10.969284,50.835907 11.529770C50.275421 12.090240,49.960480 12.850388,49.960480 13.643082C49.960480 14.435776,50.275421 15.195923,50.835907 15.756393C51.396378 16.316879,52.156525 16.631821,52.949219 16.631821C53.741913 16.631821,54.502060 16.316879,55.062531 15.756393C55.623016 15.195923,55.937958 14.435776,55.937958 13.643082Z" style="fill: rgb(100.000000%,100.000000%,100.000000%);stroke: none;"></path>
  <path d="M131.735779 41.284958C131.735779 40.492264,131.420837 39.732117,130.860352 39.171646C130.299881 38.611160,129.539734 38.296219,128.747040 38.296219C127.954346 38.296219,127.194199 38.611160,126.633728 39.171646C126.073242 39.732117,125.758301 40.492264,125.758301 41.284958C125.758301 42.077652,126.073242 42.837799,126.633728 43.398270C127.194199 43.958755,127.954346 44.273697,128.747040 44.273697C129.539734 44.273697,130.299881 43.958755,130.860352 43.398270C131.420837 42.837799,131.735779 42.077652,131.735779 41.284958Z" style="fill: rgb(100.000000%,100.000000%,100.000000%);stroke: none;"></path>
  <path d="M118.326782 9.166229C118.326782 8.373535,118.011841 7.613388,117.451355 7.052917C116.890884 6.492432,116.130737 6.177490,115.338043 6.177490C114.545349 6.177490,113.785202 6.492432,113.224731 7.052917C112.664246 7.613388,112.349304 8.373535,112.349304 9.166229C112.349304 9.958923,112.664246 10.719070,113.224731 11.279541C113.785202 11.840027,114.545349 12.154968,115.338043 12.154968C116.130737 12.154968,116.890884 11.840027,117.451355 11.279541C118.011841 10.719070,118.326782 9.958923,118.326782 9.166229Z" style="fill: rgb(100.000000%,100.000000%,100.000000%);stroke: none;"></path>
  <path d="M145.392776 82.882980C145.392776 82.090286,145.077835 81.330139,144.517349 80.769669C143.956879 80.209183,143.196732 79.894241,142.404037 79.894241C141.611343 79.894241,140.851196 80.209183,140.290726 80.769669C139.730240 81.330139,139.415298 82.090286,139.415298 82.882980C139.415298 83.675674,139.730240 84.435822,140.290726 84.996292C140.851196 85.556778,141.611343 85.871719,142.404037 85.871719C143.196732 85.871719,143.956879 85.556778,144.517349 84.996292C145.077835 84.435822,145.392776 83.675674,145.392776 82.882980Z" style="fill: rgb(100.000000%,100.000000%,100.000000%);stroke: none;"></path>
  <path d="M126.107040 58.529480C126.107040 57.736786,125.792099 56.976639,125.231613 56.416168C124.671143 55.855682,123.910995 55.540741,123.118301 55.540741C122.325607 55.540741,121.565460 55.855682,121.004990 56.416168C120.444504 56.976639,120.129562 57.736786,120.129562 58.529480C120.129562 59.322174,120.444504 60.082321,121.004990 60.642792C121.565460 61.203278,122.325607 61.518219,123.118301 61.518219C123.910995 61.518219,124.671143 61.203278,125.231613 60.642792C125.792099 60.082321,126.107040 59.322174,126.107040 58.529480Z" style="fill: rgb(100.000000%,100.000000%,100.000000%);stroke: none;"></path>
  <path d="M192.371170 101.101959C192.371170 100.309265,192.056229 99.549118,191.495743 98.988647C190.935272 98.428162,190.175125 98.113220,189.382431 98.113220C188.589737 98.113220,187.829590 98.428162,187.269119 98.988647C186.708633 99.549118,186.393692 100.309265,186.393692 101.101959C186.393692 101.894653,186.708633 102.654800,187.269119 103.215271C187.829590 103.775757,188.589737 104.090698,189.382431 104.090698C190.175125 104.090698,190.935272 103.775757,191.495743 103.215271C192.056229 102.654800,192.371170 101.894653,192.371170 101.101959Z" style="fill: rgb(100.000000%,100.000000%,100.000000%);stroke: none;"></path>
  <path d="M164.088577 80.882599C164.088577 80.089905,163.773636 79.329758,163.213150 78.769287C162.652679 78.208801,161.892532 77.893860,161.099838 77.893860C160.307144 77.893860,159.546997 78.208801,158.986526 78.769287C158.426041 79.329758,158.111099 80.089905,158.111099 80.882599C158.111099 81.675293,158.426041 82.435440,158.986526 82.995911C159.546997 83.556396,160.307144 83.871338,161.099838 83.871338C161.892532 83.871338,162.652679 83.556396,163.213150 82.995911C163.773636 82.435440,164.088577 81.675293,164.088577 80.882599Z" style="fill: rgb(100.000000%,100.000000%,100.000000%);stroke: none;"></path>
  <path d="M173.831635 159.628067C173.831635 158.835373,173.516693 158.075226,172.956207 157.514755C172.395737 156.954269,171.635590 156.639328,170.842896 156.639328C170.050201 156.639328,169.290054 156.954269,168.729584 157.514755C168.169098 158.075226,167.854156 158.835373,167.854156 159.628067C167.854156 160.420761,168.169098 161.180908,168.729584 161.741379C169.290054 162.301865,170.050201 162.616806,170.842896 162.616806C171.635590 162.616806,172.395737 162.301865,172.956207 161.741379C173.516693 161.180908,173.831635 160.420761,173.831635 159.628067Z" style="fill: rgb(100.000000%,100.000000%,100.000000%);stroke: none;"></path>
  <path d="M194.221619 123.318176C194.221619 122.525482,193.906677 121.765335,193.346191 121.204865C192.785721 120.644379,192.025574 120.329437,191.232880 120.329437C190.440186 120.329437,189.680038 120.644379,189.119568 121.204865C188.559082 121.765335,188.244141 122.525482,188.244141 123.318176C188.244141 124.110870,188.559082 124.871017,189.119568 125.431488C189.680038 125.991974,190.440186 126.306915,191.232880 126.306915C192.025574 126.306915,192.785721 125.991974,193.346191 125.431488C193.906677 124.871017,194.221619 124.110870,194.221619 123.318176Z" style="fill: rgb(100.000000%,100.000000%,100.000000%);stroke: none;"></path>
  <path d="M118.069931 154.242645C118.069931 153.449951,117.754990 152.689804,117.194504 152.129333C116.634033 151.568848,115.873886 151.253906,115.081192 151.253906C114.288498 151.253906,113.528351 151.568848,112.967880 152.129333C112.407394 152.689804,112.092453 153.449951,112.092453 154.242645C112.092453 155.035339,112.407394 155.795486,112.967880 156.355957C113.528351 156.916443,114.288498 157.231384,115.081192 157.231384C115.873886 157.231384,116.634033 156.916443,117.194504 156.355957C117.754990 155.795486,118.069931 155.035339,118.069931 154.242645Z" style="fill: rgb(100.000000%,100.000000%,100.000000%);stroke: none;"></path>
  <path d="M152.065460 169.717773C152.065460 168.925079,151.750519 168.164932,151.190033 167.604462C150.629562 167.043976,149.869415 166.729034,149.076721 166.729034C148.284027 166.729034,147.523880 167.043976,146.963409 167.604462C146.402924 168.164932,146.087982 168.925079,146.087982 169.717773C146.087982 170.510468,146.402924 171.270615,146.963409 171.831085C147.523880 172.391571,148.284027 172.706512,149.076721 172.706512C149.869415 172.706512,150.629562 172.391571,151.190033 171.831085C151.750519 171.270615,152.065460 170.510468,152.065460 169.717773Z" style="fill: rgb(100.000000%,100.000000%,100.000000%);stroke: none;"></path>
  <path d="M77.145599 127.453735C77.145599 126.661041,76.830658 125.900894,76.270172 125.340424C75.709702 124.779938,74.949554 124.464996,74.156860 124.464996C73.364166 124.464996,72.604019 124.779938,72.043549 125.340424C71.483063 125.900894,71.168121 126.661041,71.168121 127.453735C71.168121 128.246429,71.483063 129.006577,72.043549 129.567047C72.604019 130.127533,73.364166 130.442474,74.156860 130.442474C74.949554 130.442474,75.709702 130.127533,76.270172 129.567047C76.830658 129.006577,77.145599 128.246429,77.145599 127.453735Z" style="fill: rgb(100.000000%,100.000000%,100.000000%);stroke: none;"></path>
  <path d="M110.320419 136.114777C110.320419 135.322083,110.005478 134.561935,109.444992 134.001465C108.884521 133.440979,108.124374 133.126038,107.331680 133.126038C106.538986 133.126038,105.778839 133.440979,105.218369 134.001465C104.657883 134.561935,104.342941 135.322083,104.342941 136.114777C104.342941 136.907471,104.657883 137.667618,105.218369 138.228088C105.778839 138.788574,106.538986 139.103516,107.331680 139.103516C108.124374 139.103516,108.884521 138.788574,109.444992 138.228088C110.005478 137.667618,110.320419 136.907471,110.320419 136.114777Z" style="fill: rgb(100.000000%,100.000000%,100.000000%);stroke: none;"></path>
  <path d="M21.411514 139.146164C21.411514 138.353470,21.096573 137.593323,20.536087 137.032852C19.975616 136.472366,19.215469 136.157425,18.422775 136.157425C17.630081 136.157425,16.869934 136.472366,16.309464 137.032852C15.748978 137.593323,15.434036 138.353470,15.434036 139.146164C15.434036 139.938858,15.748978 140.699005,16.309464 141.259476C16.869934 141.819962,17.630081 142.134903,18.422775 142.134903C19.215469 142.134903,19.975616 141.819962,20.536087 141.259476C21.096573 140.699005,21.411514 139.938858,21.411514 139.146164Z" style="fill: rgb(100.000000%,100.000000%,100.000000%);stroke: none;"></path>
  <path d="M61.210205 140.651291C61.210205 139.858597,60.895264 139.098450,60.334778 138.537979C59.774307 137.977493,59.014160 137.662552,58.221466 137.662552C57.428772 137.662552,56.668625 137.977493,56.108154 138.537979C55.547668 139.098450,55.232727 139.858597,55.232727 140.651291C55.232727 141.443985,55.547668 142.204132,56.108154 142.764603C56.668625 143.325089,57.428772 143.640030,58.221466 143.640030C59.014160 143.640030,59.774307 143.325089,60.334778 142.764603C60.895264 142.204132,61.210205 141.443985,61.210205 140.651291Z" style="fill: rgb(100.000000%,100.000000%,100.000000%);stroke: none;"></path>
  <path d="M6.245026 72.003799C6.245026 71.211105,5.930084 70.450958,5.369598 69.890488C4.809128 69.330002,4.048981 69.015060,3.256287 69.015060C2.463593 69.015060,1.703445 69.330002,1.142975 69.890488C0.582489 70.450958,0.267548 71.211105,0.267548 72.003799C0.267548 72.796494,0.582489 73.556641,1.142975 74.117111C1.703445 74.677597,2.463593 74.992538,3.256287 74.992538C4.048981 74.992538,4.809128 74.677597,5.369598 74.117111C5.930084 73.556641,6.245026 72.796494,6.245026 72.003799Z" style="fill: rgb(100.000000%,100.000000%,100.000000%);stroke: none;"></path>
  <path d="M5.445724 118.208511C5.445724 117.415817,5.130783 116.655670,4.570297 116.095200C4.009827 115.534714,3.249680 115.219772,2.456985 115.219772C1.664291 115.219772,0.904144 115.534714,0.343674 116.095200C-0.216812 116.655670,-0.531754 117.415817,-0.531754 118.208511C-0.531754 119.001205,-0.216812 119.761353,0.343674 120.321823C0.904144 120.882309,1.664291 121.197250,2.456985 121.197250C3.249680 121.197250,4.009827 120.882309,4.570297 120.321823C5.130783 119.761353,5.445724 119.001205,5.445724 118.208511Z" style="fill: rgb(100.000000%,100.000000%,100.000000%);stroke: none;"></path>
  <path d="M60.356369 50.772125C60.356369 49.979431,60.041428 49.219284,59.480942 48.658813C58.920471 48.098328,58.160324 47.783386,57.367630 47.783386C56.574936 47.783386,55.814789 48.098328,55.254318 48.658813C54.693832 49.219284,54.378891 49.979431,54.378891 50.772125C54.378891 51.564819,54.693832 52.324966,55.254318 52.885437C55.814789 53.445923,56.574936 53.760864,57.367630 53.760864C58.160324 53.760864,58.920471 53.445923,59.480942 52.885437C60.041428 52.324966,60.356369 51.564819,60.356369 50.772125Z" style="fill: rgb(100.000000%,100.000000%,100.000000%);stroke: none;"></path>
  <path d="M22.035919 52.032730C22.035919 51.240036,21.720978 50.479889,21.160492 49.919418C20.600021 49.358932,19.839874 49.043991,19.047180 49.043991C18.254486 49.043991,17.494339 49.358932,16.933868 49.919418C16.373383 50.479889,16.058441 51.240036,16.058441 52.032730C16.058441 52.825424,16.373383 53.585571,16.933868 54.146042C17.494339 54.706528,18.254486 55.021469,19.047180 55.021469C19.839874 55.021469,20.600021 54.706528,21.160492 54.146042C21.720978 53.585571,22.035919 52.825424,22.035919 52.032730Z" style="fill: rgb(100.000000%,100.000000%,100.000000%);stroke: none;"></path>
  <path d="M106.713776 52.673126C106.713776 51.880432,106.398834 51.120285,105.838348 50.559814C105.277878 49.999329,104.517731 49.684387,103.725037 49.684387C102.932343 49.684387,102.172195 49.999329,101.611725 50.559814C101.051239 51.120285,100.736298 51.880432,100.736298 52.673126C100.736298 53.465820,101.051239 54.225967,101.611725 54.786438C102.172195 55.346924,102.932343 55.661865,103.725037 55.661865C104.517731 55.661865,105.277878 55.346924,105.838348 54.786438C106.398834 54.225967,106.713776 53.465820,106.713776 52.673126Z" style="fill: rgb(100.000000%,100.000000%,100.000000%);stroke: none;"></path>
  <path d="M75.942703 62.853134C75.942703 62.060440,75.627762 61.300293,75.067276 60.739822C74.506805 60.179337,73.746658 59.864395,72.953964 59.864395C72.161270 59.864395,71.401123 60.179337,70.840652 60.739822C70.280167 61.300293,69.965225 62.060440,69.965225 62.853134C69.965225 63.645828,70.280167 64.405975,70.840652 64.966446C71.401123 65.526932,72.161270 65.841873,72.953964 65.841873C73.746658 65.841873,74.506805 65.526932,75.067276 64.966446C75.627762 64.405975,75.942703 63.645828,75.942703 62.853134Z" style="fill: rgb(100.000000%,100.000000%,100.000000%);stroke: none;"></path>
  <path d="M142.561646 17.799637C142.561646 17.006943,142.246704 16.246796,141.686218 15.686325C141.125748 15.125839,140.365601 14.810898,139.572906 14.810898C138.780212 14.810898,138.020065 15.125839,137.459595 15.686325C136.899109 16.246796,136.584167 17.006943,136.584167 17.799637C136.584167 18.592331,136.899109 19.352478,137.459595 19.912949C138.020065 20.473434,138.780212 20.788376,139.572906 20.788376C140.365601 20.788376,141.125748 20.473434,141.686218 19.912949C142.246704 19.352478,142.561646 18.592331,142.561646 17.799637Z" style="fill: rgb(100.000000%,100.000000%,100.000000%);stroke: none;"></path>
  <path d="M112.597214 35.214142C112.597214 34.421448,112.282272 33.661301,111.721786 33.100830C111.161316 32.540344,110.401169 32.225403,109.608475 32.225403C108.815781 32.225403,108.055634 32.540344,107.495163 33.100830C106.934677 33.661301,106.619736 34.421448,106.619736 35.214142C106.619736 36.006836,106.934677 36.766983,107.495163 37.327454C108.055634 37.887939,108.815781 38.202881,109.608475 38.202881C110.401169 38.202881,111.161316 37.887939,111.721786 37.327454C112.282272 36.766983,112.597214 36.006836,112.597214 35.214142Z" style="fill: rgb(100.000000%,100.000000%,100.000000%);stroke: none;"></path>
  <path d="M187.818329 55.262329C187.818329 54.469635,187.503387 53.709488,186.942902 53.149017C186.382431 52.588531,185.622284 52.273590,184.829590 52.273590C184.036896 52.273590,183.276749 52.588531,182.716278 53.149017C182.155792 53.709488,181.840851 54.469635,181.840851 55.262329C181.840851 56.055023,182.155792 56.815170,182.716278 57.375641C183.276749 57.936127,184.036896 58.251068,184.829590 58.251068C185.622284 58.251068,186.382431 57.936127,186.942902 57.375641C187.503387 56.815170,187.818329 56.055023,187.818329 55.262329Z" style="fill: rgb(100.000000%,100.000000%,100.000000%);stroke: none;"></path>
  <path d="M163.417862 24.576569C163.417862 23.783875,163.102921 23.023727,162.542435 22.463257C161.981964 21.902771,161.221817 21.587830,160.429123 21.587830C159.636429 21.587830,158.876282 21.902771,158.315811 22.463257C157.755325 23.023727,157.440384 23.783875,157.440384 24.576569C157.440384 25.369263,157.755325 26.129410,158.315811 26.689880C158.876282 27.250366,159.636429 27.565308,160.429123 27.565308C161.221817 27.565308,161.981964 27.250366,162.542435 26.689880C163.102921 26.129410,163.417862 25.369263,163.417862 24.576569Z" style="fill: rgb(100.000000%,100.000000%,100.000000%);stroke: none;"></path>
  <path d="M165.639877 100.881851C165.639877 100.089157,165.324936 99.329010,164.764450 98.768539C164.203979 98.208054,163.443832 97.893112,162.651138 97.893112C161.858444 97.893112,161.098297 98.208054,160.537827 98.768539C159.977341 99.329010,159.662399 100.089157,159.662399 100.881851C159.662399 101.674545,159.977341 102.434692,160.537827 102.995163C161.098297 103.555649,161.858444 103.870590,162.651138 103.870590C163.443832 103.870590,164.203979 103.555649,164.764450 102.995163C165.324936 102.434692,165.639877 101.674545,165.639877 100.881851Z" style="fill: rgb(100.000000%,100.000000%,100.000000%);stroke: none;"></path>
  <path d="M189.758713 76.630478C189.758713 75.837784,189.443771 75.077637,188.883286 74.517166C188.322815 73.956680,187.562668 73.641739,186.769974 73.641739C185.977280 73.641739,185.217133 73.956680,184.656662 74.517166C184.096176 75.077637,183.781235 75.837784,183.781235 76.630478C183.781235 77.423172,184.096176 78.183319,184.656662 78.743790C185.217133 79.304276,185.977280 79.619217,186.769974 79.619217C187.562668 79.619217,188.322815 79.304276,188.883286 78.743790C189.443771 78.183319,189.758713 77.423172,189.758713 76.630478Z" style="fill: rgb(100.000000%,100.000000%,100.000000%);stroke: none;"></path>
  <path d="M129.660294 128.500092C129.660294 127.707397,129.345352 126.947250,128.784866 126.386780C128.224396 125.826294,127.464249 125.511353,126.671555 125.511353C125.878860 125.511353,125.118713 125.826294,124.558243 126.386780C123.997757 126.947250,123.682816 127.707397,123.682816 128.500092C123.682816 129.292786,123.997757 130.052933,124.558243 130.613403C125.118713 131.173889,125.878860 131.488831,126.671555 131.488831C127.464249 131.488831,128.224396 131.173889,128.784866 130.613403C129.345352 130.052933,129.660294 129.292786,129.660294 128.500092Z" style="fill: rgb(100.000000%,100.000000%,100.000000%);stroke: none;"></path>
  <path d="M146.545685 101.203873C146.545685 100.411179,146.230743 99.651031,145.670258 99.090561C145.109787 98.530075,144.349640 98.215134,143.556946 98.215134C142.764252 98.215134,142.004105 98.530075,141.443634 99.090561C140.883148 99.651031,140.568207 100.411179,140.568207 101.203873C140.568207 101.996567,140.883148 102.756714,141.443634 103.317184C142.004105 103.877670,142.764252 104.192612,143.556946 104.192612C144.349640 104.192612,145.109787 103.877670,145.670258 103.317184C146.230743 102.756714,146.545685 101.996567,146.545685 101.203873Z" style="fill: rgb(100.000000%,100.000000%,100.000000%);stroke: none;"></path>
  <path d="M126.147919 181.000839C126.147919 180.208145,125.832977 179.447998,125.272491 178.887527C124.712021 178.327042,123.951874 178.012100,123.159180 178.012100C122.366486 178.012100,121.606339 178.327042,121.045868 178.887527C120.485382 179.447998,120.170441 180.208145,120.170441 181.000839C120.170441 181.793533,120.485382 182.553680,121.045868 183.114151C121.606339 183.674637,122.366486 183.989578,123.159180 183.989578C123.951874 183.989578,124.712021 183.674637,125.272491 183.114151C125.832977 182.553680,126.147919 181.793533,126.147919 181.000839Z" style="fill: rgb(100.000000%,100.000000%,100.000000%);stroke: none;"></path>
  <path d="M138.396805 146.107208C138.396805 145.314514,138.081863 144.554367,137.521378 143.993896C136.960907 143.433411,136.200760 143.118469,135.408066 143.118469C134.615372 143.118469,133.855225 143.433411,133.294754 143.993896C132.734268 144.554367,132.419327 145.314514,132.419327 146.107208C132.419327 146.899902,132.734268 147.660049,133.294754 148.220520C133.855225 148.781006,134.615372 149.095947,135.408066 149.095947C136.200760 149.095947,136.960907 148.781006,137.521378 148.220520C138.081863 147.660049,138.396805 146.899902,138.396805 146.107208Z" style="fill: rgb(100.000000%,100.000000%,100.000000%);stroke: none;"></path>
  <path d="M77.404236 186.558975C52.823227 186.970596,34.671890 163.756073,41.000000 140.000000C45.314194 123.804291,61.693405 112.009995,61.083328 94.899734C60.493744 78.364120,44.020065 67.362442,41.000000 51.310562C37.241745 31.335129,52.949219 13.643082,73.549759 8.031433C93.485535 2.600861,115.338043 9.166229,122.970551 27.448471C128.747040 41.284958,123.118301 58.529480,132.622986 70.531738C142.404037 82.882980,161.099838 80.882599,173.631271 89.841385C189.382431 101.101959,191.232880 123.318176,181.390045 140.846008C170.842896 159.628067,149.076721 169.717773,130.145111 161.099899C115.081192 154.242645,107.331680 136.114777,91.110199 131.879791C74.156860 127.453735,58.221466 140.651291,41.000000 140.000000C18.422775 139.146164,2.456985 118.208511,2.862701 94.755280C3.256287 72.003799,19.047180 52.032730,41.000000 51.310562C57.367630 50.772125,72.953964 62.853134,88.828796 57.601257C103.725037 52.673126,109.608475 35.214142,122.970551 27.448471C139.572906 17.799637,160.429123 24.576569,172.768326 40.094223C184.829590 55.262329,186.769974 76.630478,173.631271 89.841385C162.651138 100.881851,143.556946 101.203873,135.200668 114.712280C126.671555 128.500092,135.408066 146.107208,130.145111 161.099899C123.159180 181.000839,99.483490 186.189255,77.404236 186.558975" style="stroke:rgb(0.000000%,0.000000%,0.000000%); stroke-width: 0.498138;stroke-linecap: round;stroke-linejoin: round;stroke-miterlimit: 10.000000;fill: none;"></path>
  <path d="M77.404236 186.558975C52.823227 186.970596,34.671890 163.756073,41.000000 140.000000C45.314194 123.804291,61.693405 112.009995,61.083328 94.899734C60.493744 78.364120,44.020065 67.362442,41.000000 51.310562" style="stroke:rgb(0.000000%,0.000000%,0.000000%); stroke-width: 1.494400;stroke-linecap: round;stroke-linejoin: round;stroke-miterlimit: 10.000000;fill: none;"></path>
  <path d="M130.145111 161.099899C123.159180 181.000839,99.483490 186.189255,77.404236 186.558975" style="stroke:rgb(0.000000%,0.000000%,0.000000%); stroke-width: 1.494400;stroke-linecap: round;stroke-linejoin: round;stroke-miterlimit: 10.000000;fill: none;"></path>
  <path d="M43.988739 140.000000C43.988739 139.207306,43.673798 138.447159,43.113312 137.886688C42.552841 137.326202,41.792694 137.011261,41.000000 137.011261C40.207306 137.011261,39.447159 137.326202,38.886688 137.886688C38.326202 138.447159,38.011261 139.207306,38.011261 140.000000C38.011261 140.792694,38.326202 141.552841,38.886688 142.113312C39.447159 142.673798,40.207306 142.988739,41.000000 142.988739C41.792694 142.988739,42.552841 142.673798,43.113312 142.113312C43.673798 141.552841,43.988739 140.792694,43.988739 140.000000Z" style="fill: rgb(100.000000%,100.000000%,100.000000%);stroke: none;"></path>
  <path d="M47.611191 172.342361C40.791748 163.620682,37.835953 151.878036,41.000000 140.000000C43.157104 131.902145,48.330460 124.904633,52.888275 117.792816" style="stroke:rgb(0.000000%,0.000000%,0.000000%); stroke-width: 1.494400;stroke-linecap: round;stroke-linejoin: round;stroke-miterlimit: 10.000000;fill: none;"></path>
  <path d="M125.959290 27.448471C125.959290 26.655777,125.644348 25.895630,125.083862 25.335159C124.523392 24.774673,123.763245 24.459732,122.970551 24.459732C122.177856 24.459732,121.417709 24.774673,120.857239 25.335159C120.296753 25.895630,119.981812 26.655777,119.981812 27.448471C119.981812 28.241165,120.296753 29.001312,120.857239 29.561783C121.417709 30.122269,122.177856 30.437210,122.970551 30.437210C123.763245 30.437210,124.523392 30.122269,125.083862 29.561783C125.644348 29.001312,125.959290 28.241165,125.959290 27.448471Z" style="fill: rgb(100.000000%,100.000000%,100.000000%);stroke: none;"></path>
  <path d="M102.873886 8.847656C111.783051 12.095459,119.154297 18.307358,122.970551 27.448471C125.858795 34.366714,125.895737 42.136978,126.398697 49.677948" style="stroke:rgb(0.000000%,0.000000%,0.000000%); stroke-width: 0.498138;stroke-linecap: round;stroke-linejoin: round;stroke-miterlimit: 10.000000;fill: none;"></path>
  <path d="M133.133850 161.099899C133.133850 160.307205,132.818909 159.547058,132.258423 158.986588C131.697952 158.426102,130.937805 158.111160,130.145111 158.111160C129.352417 158.111160,128.592270 158.426102,128.031799 158.986588C127.471313 159.547058,127.156372 160.307205,127.156372 161.099899C127.156372 161.892593,127.471313 162.652740,128.031799 163.213211C128.592270 163.773697,129.352417 164.088638,130.145111 164.088638C130.937805 164.088638,131.697952 163.773697,132.258423 163.213211C132.818909 162.652740,133.133850 161.892593,133.133850 161.099899Z" style="fill: rgb(100.000000%,100.000000%,100.000000%);stroke: none;"></path>
  <path d="M158.911743 161.247940C149.785355 165.040878,139.610916 165.408829,130.145111 161.099899C122.613144 157.671265,116.909790 151.424988,111.061737 145.506485" style="stroke:rgb(0.000000%,0.000000%,0.000000%); stroke-width: 0.498138;stroke-linecap: round;stroke-linejoin: round;stroke-miterlimit: 10.000000;fill: none;"></path>
  <path d="M43.988739 51.310562C43.988739 50.517868,43.673798 49.757721,43.113312 49.197250C42.552841 48.636765,41.792694 48.321823,41.000000 48.321823C40.207306 48.321823,39.447159 48.636765,38.886688 49.197250C38.326202 49.757721,38.011261 50.517868,38.011261 51.310562C38.011261 52.103256,38.326202 52.863403,38.886688 53.423874C39.447159 53.984360,40.207306 54.299301,41.000000 54.299301C41.792694 54.299301,42.552841 53.984360,43.113312 53.423874C43.673798 52.863403,43.988739 52.103256,43.988739 51.310562Z" style="fill: rgb(100.000000%,100.000000%,100.000000%);stroke: none;"></path>
  <path d="M13.846649 64.771927C20.587662 56.844955,30.023590 51.671646,41.000000 51.310562C49.183823 51.041336,57.172318 53.926987,65.099213 56.223450" style="stroke:rgb(0.000000%,0.000000%,0.000000%); stroke-width: 0.498138;stroke-linecap: round;stroke-linejoin: round;stroke-miterlimit: 10.000000;fill: none;"></path>
  <path d="M176.620010 89.841385C176.620010 89.048691,176.305069 88.288544,175.744583 87.728073C175.184113 87.167587,174.423965 86.852646,173.631271 86.852646C172.838577 86.852646,172.078430 87.167587,171.517960 87.728073C170.957474 88.288544,170.642532 89.048691,170.642532 89.841385C170.642532 90.634079,170.957474 91.394226,171.517960 91.954697C172.078430 92.515182,172.838577 92.830124,173.631271 92.830124C174.423965 92.830124,175.184113 92.515182,175.744583 91.954697C176.305069 91.394226,176.620010 90.634079,176.620010 89.841385Z" style="fill: rgb(100.000000%,100.000000%,100.000000%);stroke: none;"></path>
  <path d="M182.649796 65.701767C183.000198 74.591171,180.200623 83.235931,173.631271 89.841385C168.141205 95.361618,160.622620 98.202240,153.432007 101.351364" style="stroke:rgb(0.000000%,0.000000%,0.000000%); stroke-width: 0.498138;stroke-linecap: round;stroke-linejoin: round;stroke-miterlimit: 10.000000;fill: none;"></path>
  <path d="M61.083328 94.899734C60.611664 81.671188,49.974106 71.984390,44.191711 60.420212" style="stroke:rgb(0.000000%,0.000000%,0.000000%); stroke-width: 0.498138;stroke-linecap: round;stroke-linejoin: round;stroke-miterlimit: 10.000000;fill: none;"></path>
  <path d="M48.110825 63.524826C46.759094 62.533936,45.444412 61.506622,44.191711 60.420212C44.309280 62.074219,44.512451 63.730255,44.767563 65.386765Z" style="stroke:rgb(0.000000%,0.000000%,0.000000%); stroke-width: 0.498138;fill: rgb(0.000000%,0.000000%,0.000000%);"></path>
  <path d="M61.083328 94.899734C60.611664 81.671188,49.974106 71.984390,44.191711 60.420212" style="stroke:rgb(0.000000%,0.000000%,0.000000%); stroke-width: 0.498138;stroke-linecap: round;stroke-linejoin: round;stroke-miterlimit: 10.000000;fill: none;"></path>
  <path d="M46.512833 62.320480C45.720322 61.705124,44.944824 61.073364,44.191711 60.420212C44.262390 61.414581,44.363998 62.409683,44.489243 63.405197Z" style="stroke:rgb(0.000000%,0.000000%,0.000000%); stroke-width: 0.498138;fill: rgb(0.000000%,0.000000%,0.000000%);"></path>
  <path d="M132.622986 70.531738C140.447861 80.412766,153.978210 81.108688,165.493454 85.578781" style="stroke:rgb(0.000000%,0.000000%,0.000000%); stroke-width: 0.498138;stroke-linecap: round;stroke-linejoin: round;stroke-miterlimit: 10.000000;fill: none;"></path>
  <path d="M162.497116 85.721161C163.497833 85.651199,164.497009 85.601120,165.493454 85.578781C164.773071 84.889969,164.031158 84.218857,163.274094 83.560699Z" style="stroke:rgb(0.000000%,0.000000%,0.000000%); stroke-width: 0.498138;fill: rgb(0.000000%,0.000000%,0.000000%);"></path>
  <path d="M181.390045 140.846008C172.952286 155.871719,157.334305 165.334274,141.731613 164.105820" style="stroke:rgb(0.000000%,0.000000%,0.000000%); stroke-width: 0.498138;stroke-linecap: round;stroke-linejoin: round;stroke-miterlimit: 10.000000;fill: none;"></path>
  <path d="M144.541946 163.056259C143.622726 163.445374,142.685547 163.795898,141.731613 164.105820C142.625275 164.561218,143.535812 164.976074,144.460953 165.350906Z" style="stroke:rgb(0.000000%,0.000000%,0.000000%); stroke-width: 0.498138;fill: rgb(0.000000%,0.000000%,0.000000%);"></path>
  <path d="M88.828796 57.601257C100.745834 53.658737,106.894638 41.696411,115.718918 33.093185" style="stroke:rgb(0.000000%,0.000000%,0.000000%); stroke-width: 0.498138;stroke-linecap: round;stroke-linejoin: round;stroke-miterlimit: 10.000000;fill: none;"></path>
  <path d="M114.606476 35.879410C114.956970 34.939621,115.325638 34.009598,115.718918 33.093185C114.792831 33.463089,113.874512 33.860001,112.962128 34.276688Z" style="stroke:rgb(0.000000%,0.000000%,0.000000%); stroke-width: 0.498138;fill: rgb(0.000000%,0.000000%,0.000000%);"></path>
  <path d="M172.768326 40.094223C182.417374 52.228760,185.589005 68.331345,179.744598 81.050980" style="stroke:rgb(0.000000%,0.000000%,0.000000%); stroke-width: 0.498138;stroke-linecap: round;stroke-linejoin: round;stroke-miterlimit: 10.000000;fill: none;"></path>
  <path d="M179.712570 78.051193C179.771393 79.048035,179.782715 80.048676,179.744598 81.050980C180.480286 80.369202,181.179871 79.653656,181.843155 78.907211Z" style="stroke:rgb(0.000000%,0.000000%,0.000000%); stroke-width: 0.498138;fill: rgb(0.000000%,0.000000%,0.000000%);"></path>
  <path d="M74.413589 189.269180L80.394882 189.269180L80.394882 181.848785L74.413589 181.848785Z" style="fill: rgb(100.000000%,100.000000%,100.000000%);stroke: none;"></path>
  <path d="M74.413589 191.269180L80.394882 191.269180L80.394882 183.848785L74.413589 183.848785Z" style="fill: rgb(100.000000%,100.000000%,100.000000%);stroke: none;"></path>
  <g transform="translate(74.913589 189.769180)" style="fill: rgb(0.000000%,0.000000%,0.000000%);">
    <use xlink:href="#GLYPHcmr10_49"></use>
  </g>
  <path d="M70.559113 10.741638L76.540405 10.741638L76.540405 3.321243L70.559113 3.321243Z" style="fill: rgb(100.000000%,100.000000%,100.000000%);stroke: none;"></path>
  <path d="M70.559113 12.741638L76.540405 12.741638L76.540405 5.321243L70.559113 5.321243Z" style="fill: rgb(100.000000%,100.000000%,100.000000%);stroke: none;"></path>
  <g transform="translate(71.059113 11.241638)" style="fill: rgb(0.000000%,0.000000%,0.000000%);">
    <use xlink:href="#GLYPHcmr10_50"></use>
  </g>
  <path d="M88.119553 134.589996L94.100845 134.589996L94.100845 127.169601L88.119553 127.169601Z" style="fill: rgb(100.000000%,100.000000%,100.000000%);stroke: none;"></path>
  <path d="M88.119553 136.589996L94.100845 136.589996L94.100845 129.169601L88.119553 129.169601Z" style="fill: rgb(100.000000%,100.000000%,100.000000%);stroke: none;"></path>
  <g transform="translate(88.619553 135.089996)" style="fill: rgb(0.000000%,0.000000%,0.000000%);">
    <use xlink:href="#GLYPHcmr10_51"></use>
  </g>
  <path d="M-0.127945 97.465485L5.853348 97.465485L5.853348 90.045090L-0.127945 90.045090Z" style="fill: rgb(100.000000%,100.000000%,100.000000%);stroke: none;"></path>
  <path d="M-0.127945 99.465485L5.853348 99.465485L5.853348 92.045090L-0.127945 92.045090Z" style="fill: rgb(100.000000%,100.000000%,100.000000%);stroke: none;"></path>
  <g transform="translate(0.372055 97.965485)" style="fill: rgb(0.000000%,0.000000%,0.000000%);">
    <use xlink:href="#GLYPHcmr10_52"></use>
  </g>
  <path d="M132.210022 117.422485L138.191315 117.422485L138.191315 110.002090L132.210022 110.002090Z" style="fill: rgb(100.000000%,100.000000%,100.000000%);stroke: none;"></path>
  <path d="M132.210022 119.422485L138.191315 119.422485L138.191315 112.002090L132.210022 112.002090Z" style="fill: rgb(100.000000%,100.000000%,100.000000%);stroke: none;"></path>
  <g transform="translate(132.710022 117.922485)" style="fill: rgb(0.000000%,0.000000%,0.000000%);">
    <use xlink:href="#GLYPHcmr10_53"></use>
  </g>
</svg>
