<?xml version="1.0"?>
<!-- Created by MetaPost 1.999 on 2021.07.06:0003 -->
<svg version="1.1" xmlns="http://www.w3.org/2000/svg" xmlns:xlink="http://www.w3.org/1999/xlink" width="199.882172" height="201.535172" viewBox="0 0 199.882172 201.535172">
<!-- Original BoundingBox: -68.055359 -45.565826 131.826813 155.969345 -->
  <defs>
    <g transform="scale(0.009963,0.009963)" id="GLYPHcmr10_49">
      <path style="fill-rule: evenodd;" d="M294.000000 -640.000000C294.000000 -664.000000,294.000000 -666.000000,271.000000 -666.000000C209.000000 -602.000000,121.000000 -602.000000,89.000000 -602.000000L89.000000 -571.000000C109.000000 -571.000000,168.000000 -571.000000,220.000000 -597.000000L220.000000 -79.000000C220.000000 -43.000000,217.000000 -31.000000,127.000000 -31.000000L95.000000 -31.000000L95.000000 -0.000000L257.000000 -0.000000L130.000000 -3.000000L217.000000 -3.000000L257.000000 -3.000000L297.000000 -3.000000L384.000000 -3.000000L419.000000 -0.000000L419.000000 -31.000000L387.000000 -31.000000C297.000000 -31.000000,294.000000 -42.000000,294.000000 -79.000000"></path>
    </g>
    <g transform="scale(0.009963,0.009963)" id="GLYPHcmr10_50">
      <path style="fill-rule: evenodd;" d="M127.000000 -77.000000L233.000000 -180.000000C389.000000 -318.000000,449.000000 -372.000000,449.000000 -472.000000C449.000000 -586.000000,359.000000 -666.000000,237.000000 -666.000000C124.000000 -666.000000,50.000000 -574.000000,50.000000 -485.000000C50.000000 -429.000000,100.000000 -429.000000,103.000000 -429.000000C120.000000 -429.000000,155.000000 -441.000000,155.000000 -482.000000C155.000000 -508.000000,137.000000 -534.000000,102.000000 -534.000000C94.000000 -534.000000,92.000000 -534.000000,89.000000 -533.000000C112.000000 -598.000000,166.000000 -635.000000,224.000000 -635.000000C315.000000 -635.000000,358.000000 -554.000000,358.000000 -472.000000C358.000000 -392.000000,308.000000 -313.000000,253.000000 -251.000000L61.000000 -37.000000C50.000000 -26.000000,50.000000 -24.000000,50.000000 -0.000000L421.000000 -0.000000L449.000000 -174.000000L424.000000 -174.000000C419.000000 -144.000000,412.000000 -100.000000,402.000000 -85.000000C395.000000 -77.000000,329.000000 -77.000000,307.000000 -77.000000"></path>
    </g>
    <g transform="scale(0.009963,0.009963)" id="GLYPHcmr10_51">
      <path style="fill-rule: evenodd;" d="M290.000000 -352.000000C372.000000 -379.000000,430.000000 -449.000000,430.000000 -528.000000C430.000000 -610.000000,342.000000 -666.000000,246.000000 -666.000000C145.000000 -666.000000,69.000000 -606.000000,69.000000 -530.000000C69.000000 -497.000000,91.000000 -478.000000,120.000000 -478.000000C151.000000 -478.000000,171.000000 -500.000000,171.000000 -529.000000C171.000000 -579.000000,124.000000 -579.000000,109.000000 -579.000000C140.000000 -628.000000,206.000000 -641.000000,242.000000 -641.000000C283.000000 -641.000000,338.000000 -619.000000,338.000000 -529.000000C338.000000 -517.000000,336.000000 -459.000000,310.000000 -415.000000C280.000000 -367.000000,246.000000 -364.000000,221.000000 -363.000000C213.000000 -362.000000,189.000000 -360.000000,182.000000 -360.000000C174.000000 -359.000000,167.000000 -358.000000,167.000000 -348.000000C167.000000 -337.000000,174.000000 -337.000000,191.000000 -337.000000L235.000000 -337.000000C317.000000 -337.000000,354.000000 -269.000000,354.000000 -171.000000C354.000000 -35.000000,285.000000 -6.000000,241.000000 -6.000000C198.000000 -6.000000,123.000000 -23.000000,88.000000 -82.000000C123.000000 -77.000000,154.000000 -99.000000,154.000000 -137.000000C154.000000 -173.000000,127.000000 -193.000000,98.000000 -193.000000C74.000000 -193.000000,42.000000 -179.000000,42.000000 -135.000000C42.000000 -44.000000,135.000000 22.000000,244.000000 22.000000C366.000000 22.000000,457.000000 -69.000000,457.000000 -171.000000C457.000000 -253.000000,394.000000 -331.000000,290.000000 -352.000000"></path>
    </g>
    <g transform="scale(0.009963,0.009963)" id="GLYPHcmr10_52">
      <path style="fill-rule: evenodd;" d="M294.000000 -165.000000L294.000000 -78.000000C294.000000 -42.000000,292.000000 -31.000000,218.000000 -31.000000L197.000000 -31.000000L197.000000 -0.000000L332.000000 -0.000000L238.000000 -3.000000L290.000000 -3.000000L332.000000 -3.000000L374.000000 -3.000000L427.000000 -3.000000L468.000000 -0.000000L468.000000 -31.000000L447.000000 -31.000000C373.000000 -31.000000,371.000000 -42.000000,371.000000 -78.000000L371.000000 -165.000000L471.000000 -165.000000L471.000000 -196.000000L371.000000 -196.000000L371.000000 -651.000000C371.000000 -671.000000,371.000000 -677.000000,355.000000 -677.000000C346.000000 -677.000000,343.000000 -677.000000,335.000000 -665.000000L28.000000 -196.000000L28.000000 -165.000000M300.000000 -196.000000L56.000000 -196.000000L300.000000 -569.000000"></path>
    </g>
    <g transform="scale(0.009963,0.009963)" id="GLYPHcmr10_53">
      <path style="fill-rule: evenodd;" d="M449.000000 -201.000000C449.000000 -320.000000,367.000000 -420.000000,259.000000 -420.000000C211.000000 -420.000000,168.000000 -404.000000,132.000000 -369.000000L132.000000 -564.000000C152.000000 -558.000000,185.000000 -551.000000,217.000000 -551.000000C340.000000 -551.000000,410.000000 -642.000000,410.000000 -655.000000C410.000000 -661.000000,407.000000 -666.000000,400.000000 -666.000000C399.000000 -666.000000,397.000000 -666.000000,392.000000 -663.000000C372.000000 -654.000000,323.000000 -634.000000,256.000000 -634.000000C216.000000 -634.000000,170.000000 -641.000000,123.000000 -662.000000C115.000000 -665.000000,113.000000 -665.000000,111.000000 -665.000000C101.000000 -665.000000,101.000000 -657.000000,101.000000 -641.000000L101.000000 -345.000000C101.000000 -327.000000,101.000000 -319.000000,115.000000 -319.000000C122.000000 -319.000000,124.000000 -322.000000,128.000000 -328.000000C139.000000 -344.000000,176.000000 -398.000000,257.000000 -398.000000C309.000000 -398.000000,334.000000 -352.000000,342.000000 -334.000000C358.000000 -297.000000,360.000000 -258.000000,360.000000 -208.000000C360.000000 -173.000000,360.000000 -113.000000,336.000000 -71.000000C312.000000 -32.000000,275.000000 -6.000000,229.000000 -6.000000C156.000000 -6.000000,99.000000 -59.000000,82.000000 -118.000000C85.000000 -117.000000,88.000000 -116.000000,99.000000 -116.000000C132.000000 -116.000000,149.000000 -141.000000,149.000000 -165.000000C149.000000 -189.000000,132.000000 -214.000000,99.000000 -214.000000C85.000000 -214.000000,50.000000 -207.000000,50.000000 -161.000000C50.000000 -75.000000,119.000000 22.000000,231.000000 22.000000C347.000000 22.000000,449.000000 -74.000000,449.000000 -201.000000"></path>
    </g>
  </defs>
  <path d="M105.407593 197.577087C105.407593 196.784393,105.092651 196.024246,104.532166 195.463776C103.971695 194.903290,103.211548 194.588348,102.418854 194.588348C101.626160 194.588348,100.866013 194.903290,100.305542 195.463776C99.745056 196.024246,99.430115 196.784393,99.430115 197.577087C99.430115 198.369781,99.745056 199.129929,100.305542 199.690399C100.866013 200.250885,101.626160 200.565826,102.418854 200.565826C103.211548 200.565826,103.971695 200.250885,104.532166 199.690399C105.092651 199.129929,105.407593 198.369781,105.407593 197.577087Z" style="fill: rgb(100.000000%,100.000000%,100.000000%);stroke: none;"></path>
  <path d="M130.916946 186.694977C130.916946 185.902283,130.602005 185.142136,130.041519 184.581665C129.481049 184.021179,128.720901 183.706238,127.928207 183.706238C127.135513 183.706238,126.375366 184.021179,125.814896 184.581665C125.254410 185.142136,124.939468 185.902283,124.939468 186.694977C124.939468 187.487671,125.254410 188.247818,125.814896 188.808289C126.375366 189.368774,127.135513 189.683716,127.928207 189.683716C128.720901 189.683716,129.481049 189.368774,130.041519 188.808289C130.602005 188.247818,130.916946 187.487671,130.916946 186.694977Z" style="fill: rgb(100.000000%,100.000000%,100.000000%);stroke: none;"></path>
  <path d="M67.651306 138.067276C67.651306 137.274582,67.336365 136.514435,66.775879 135.953964C66.215408 135.393478,65.455261 135.078537,64.662567 135.078537C63.869873 135.078537,63.109726 135.393478,62.549255 135.953964C61.988770 136.514435,61.673828 137.274582,61.673828 138.067276C61.673828 138.859970,61.988770 139.620117,62.549255 140.180588C63.109726 140.741074,63.869873 141.056015,64.662567 141.056015C65.455261 141.056015,66.215408 140.741074,66.775879 140.180588C67.336365 139.620117,67.651306 138.859970,67.651306 138.067276Z" style="fill: rgb(100.000000%,100.000000%,100.000000%);stroke: none;"></path>
  <path d="M76.351837 182.210022C76.351837 181.417328,76.036896 180.657181,75.476410 180.096710C74.915939 179.536224,74.155792 179.221283,73.363098 179.221283C72.570404 179.221283,71.810257 179.536224,71.249786 180.096710C70.689301 180.657181,70.374359 181.417328,70.374359 182.210022C70.374359 183.002716,70.689301 183.762863,71.249786 184.323334C71.810257 184.883820,72.570404 185.198761,73.363098 185.198761C74.155792 185.198761,74.915939 184.883820,75.476410 184.323334C76.036896 183.762863,76.351837 183.002716,76.351837 182.210022Z" style="fill: rgb(100.000000%,100.000000%,100.000000%);stroke: none;"></path>
  <path d="M75.573441 94.670944C75.573441 93.878250,75.258499 93.118103,74.698013 92.557632C74.137543 91.997147,73.377396 91.682205,72.584702 91.682205C71.792007 91.682205,71.031860 91.997147,70.471390 92.557632C69.910904 93.118103,69.595963 93.878250,69.595963 94.670944C69.595963 95.463638,69.910904 96.223785,70.471390 96.784256C71.031860 97.344742,71.792007 97.659683,72.584702 97.659683C73.377396 97.659683,74.137543 97.344742,74.698013 96.784256C75.258499 96.223785,75.573441 95.463638,75.573441 94.670944Z" style="fill: rgb(100.000000%,100.000000%,100.000000%);stroke: none;"></path>
  <path d="M75.756287 121.332123C75.756287 120.539429,75.441345 119.779282,74.880859 119.218811C74.320389 118.658325,73.560242 118.343384,72.767548 118.343384C71.974854 118.343384,71.214706 118.658325,70.654236 119.218811C70.093750 119.779282,69.778809 120.539429,69.778809 121.332123C69.778809 122.124817,70.093750 122.884964,70.654236 123.445435C71.214706 124.005920,71.974854 124.320862,72.767548 124.320862C73.560242 124.320862,74.320389 124.005920,74.880859 123.445435C75.441345 122.884964,75.756287 122.124817,75.756287 121.332123Z" style="fill: rgb(100.000000%,100.000000%,100.000000%);stroke: none;"></path>
  <path d="M69.723785 70.260788C69.723785 69.468094,69.408844 68.707947,68.848358 68.147476C68.287888 67.586990,67.527740 67.272049,66.735046 67.272049C65.942352 67.272049,65.182205 67.586990,64.621735 68.147476C64.061249 68.707947,63.746307 69.468094,63.746307 70.260788C63.746307 71.053482,64.061249 71.813629,64.621735 72.374100C65.182205 72.934586,65.942352 73.249527,66.735046 73.249527C67.527740 73.249527,68.287888 72.934586,68.848358 72.374100C69.408844 71.813629,69.723785 71.053482,69.723785 70.260788Z" style="fill: rgb(100.000000%,100.000000%,100.000000%);stroke: none;"></path>
  <path d="M72.980469 85.438934C72.980469 84.646240,72.665527 83.886093,72.105042 83.325623C71.544571 82.765137,70.784424 82.450195,69.991730 82.450195C69.199036 82.450195,68.438889 82.765137,67.878418 83.325623C67.317932 83.886093,67.002991 84.646240,67.002991 85.438934C67.002991 86.231628,67.317932 86.991776,67.878418 87.552246C68.438889 88.112732,69.199036 88.427673,69.991730 88.427673C70.784424 88.427673,71.544571 88.112732,72.105042 87.552246C72.665527 86.991776,72.980469 86.231628,72.980469 85.438934Z" style="fill: rgb(100.000000%,100.000000%,100.000000%);stroke: none;"></path>
  <path d="M57.727066 49.750732C57.727066 48.958038,57.412125 48.197891,56.851639 47.637421C56.291168 47.076935,55.531021 46.761993,54.738327 46.761993C53.945633 46.761993,53.185486 47.076935,52.625015 47.637421C52.064529 48.197891,51.749588 48.958038,51.749588 49.750732C51.749588 50.543427,52.064529 51.303574,52.625015 51.864044C53.185486 52.424530,53.945633 52.739471,54.738327 52.739471C55.531021 52.739471,56.291168 52.424530,56.851639 51.864044C57.412125 51.303574,57.727066 50.543427,57.727066 49.750732Z" style="fill: rgb(100.000000%,100.000000%,100.000000%);stroke: none;"></path>
  <path d="M68.620804 64.155167C68.620804 63.362473,68.305862 62.602325,67.745377 62.041855C67.184906 61.481369,66.424759 61.166428,65.632065 61.166428C64.839371 61.166428,64.079224 61.481369,63.518753 62.041855C62.958267 62.602325,62.643326 63.362473,62.643326 64.155167C62.643326 64.947861,62.958267 65.708008,63.518753 66.268478C64.079224 66.828964,64.839371 67.143906,65.632065 67.143906C66.424759 67.143906,67.184906 66.828964,67.745377 66.268478C68.305862 65.708008,68.620804 64.947861,68.620804 64.155167Z" style="fill: rgb(100.000000%,100.000000%,100.000000%);stroke: none;"></path>
  <path d="M11.720291 63.797165C11.720291 63.004471,11.405350 62.244324,10.844864 61.683853C10.284393 61.123367,9.524246 60.808426,8.731552 60.808426C7.938858 60.808426,7.178711 61.123367,6.618240 61.683853C6.057755 62.244324,5.742813 63.004471,5.742813 63.797165C5.742813 64.589859,6.057755 65.350006,6.618240 65.910477C7.178711 66.470963,7.938858 66.785904,8.731552 66.785904C9.524246 66.785904,10.284393 66.470963,10.844864 65.910477C11.405350 65.350006,11.720291 64.589859,11.720291 63.797165Z" style="fill: rgb(100.000000%,100.000000%,100.000000%);stroke: none;"></path>
  <path d="M44.230957 48.240097C44.230957 47.447403,43.916016 46.687256,43.355530 46.126785C42.795059 45.566299,42.034912 45.251358,41.242218 45.251358C40.449524 45.251358,39.689377 45.566299,39.128906 46.126785C38.568420 46.687256,38.253479 47.447403,38.253479 48.240097C38.253479 49.032791,38.568420 49.792938,39.128906 50.353409C39.689377 50.913895,40.449524 51.228836,41.242218 51.228836C42.034912 51.228836,42.795059 50.913895,43.355530 50.353409C43.916016 49.792938,44.230957 49.032791,44.230957 48.240097Z" style="fill: rgb(100.000000%,100.000000%,100.000000%);stroke: none;"></path>
  <path d="M20.726715 142.463898C20.726715 141.671204,20.411774 140.911057,19.851288 140.350586C19.290817 139.790100,18.530670 139.475159,17.737976 139.475159C16.945282 139.475159,16.185135 139.790100,15.624664 140.350586C15.064178 140.911057,14.749237 141.671204,14.749237 142.463898C14.749237 143.256592,15.064178 144.016739,15.624664 144.577209C16.185135 145.137695,16.945282 145.452637,17.737976 145.452637C18.530670 145.452637,19.290817 145.137695,19.851288 144.577209C20.411774 144.016739,20.726715 143.256592,20.726715 142.463898Z" style="fill: rgb(100.000000%,100.000000%,100.000000%);stroke: none;"></path>
  <path d="M5.922119 90.458344C5.922119 89.665649,5.607178 88.905502,5.046692 88.345032C4.486221 87.784546,3.726074 87.469604,2.933380 87.469604C2.140686 87.469604,1.380539 87.784546,0.820068 88.345032C0.259583 88.905502,-0.055359 89.665649,-0.055359 90.458344C-0.055359 91.251038,0.259583 92.011185,0.820068 92.571655C1.380539 93.132141,2.140686 93.447083,2.933380 93.447083C3.726074 93.447083,4.486221 93.132141,5.046692 92.571655C5.607178 92.011185,5.922119 91.251038,5.922119 90.458344Z" style="fill: rgb(100.000000%,100.000000%,100.000000%);stroke: none;"></path>
  <path d="M87.564346 149.572815C87.564346 148.780121,87.249405 148.019974,86.688919 147.459503C86.128448 146.899017,85.368301 146.584076,84.575607 146.584076C83.782913 146.584076,83.022766 146.899017,82.462296 147.459503C81.901810 148.019974,81.586868 148.780121,81.586868 149.572815C81.586868 150.365509,81.901810 151.125656,82.462296 151.686127C83.022766 152.246613,83.782913 152.561554,84.575607 152.561554C85.368301 152.561554,86.128448 152.246613,86.688919 151.686127C87.249405 151.125656,87.564346 150.365509,87.564346 149.572815Z" style="fill: rgb(100.000000%,100.000000%,100.000000%);stroke: none;"></path>
  <path d="M45.464172 163.357269C45.464172 162.564575,45.149231 161.804428,44.588745 161.243958C44.028275 160.683472,43.268127 160.368530,42.475433 160.368530C41.682739 160.368530,40.922592 160.683472,40.362122 161.243958C39.801636 161.804428,39.486694 162.564575,39.486694 163.357269C39.486694 164.149963,39.801636 164.910110,40.362122 165.470581C40.922592 166.031067,41.682739 166.346008,42.475433 166.346008C43.268127 166.346008,44.028275 166.031067,44.588745 165.470581C45.149231 164.910110,45.464172 164.149963,45.464172 163.357269Z" style="fill: rgb(100.000000%,100.000000%,100.000000%);stroke: none;"></path>
  <path d="M130.148560 122.026642C130.148560 121.233948,129.833618 120.473801,129.273132 119.913330C128.712662 119.352844,127.952515 119.037903,127.159821 119.037903C126.367126 119.037903,125.606979 119.352844,125.046509 119.913330C124.486023 120.473801,124.171082 121.233948,124.171082 122.026642C124.171082 122.819336,124.486023 123.579483,125.046509 124.139954C125.606979 124.700439,126.367126 125.015381,127.159821 125.015381C127.952515 125.015381,128.712662 124.700439,129.273132 124.139954C129.833618 123.579483,130.148560 122.819336,130.148560 122.026642Z" style="fill: rgb(100.000000%,100.000000%,100.000000%);stroke: none;"></path>
  <path d="M96.969757 131.481873C96.969757 130.689178,96.654816 129.929031,96.094330 129.368561C95.533859 128.808075,94.773712 128.493134,93.981018 128.493134C93.188324 128.493134,92.428177 128.808075,91.867706 129.368561C91.307220 129.929031,90.992279 130.689178,90.992279 131.481873C90.992279 132.274567,91.307220 133.034714,91.867706 133.595184C92.428177 134.155670,93.188324 134.470612,93.981018 134.470612C94.773712 134.470612,95.533859 134.155670,96.094330 133.595184C96.654816 133.034714,96.969757 132.274567,96.969757 131.481873Z" style="fill: rgb(100.000000%,100.000000%,100.000000%);stroke: none;"></path>
  <path d="M188.376114 122.247482C188.376114 121.454788,188.061172 120.694641,187.500687 120.134171C186.940216 119.573685,186.180069 119.258743,185.387375 119.258743C184.594681 119.258743,183.834534 119.573685,183.274063 120.134171C182.713577 120.694641,182.398636 121.454788,182.398636 122.247482C182.398636 123.040176,182.713577 123.800323,183.274063 124.360794C183.834534 124.921280,184.594681 125.236221,185.387375 125.236221C186.180069 125.236221,186.940216 124.921280,187.500687 124.360794C188.061172 123.800323,188.376114 123.040176,188.376114 122.247482Z" style="fill: rgb(100.000000%,100.000000%,100.000000%);stroke: none;"></path>
  <path d="M147.219131 131.770889C147.219131 130.978195,146.904190 130.218048,146.343704 129.657578C145.783234 129.097092,145.023087 128.782150,144.230392 128.782150C143.437698 128.782150,142.677551 129.097092,142.117081 129.657578C141.556595 130.218048,141.241653 130.978195,141.241653 131.770889C141.241653 132.563583,141.556595 133.323730,142.117081 133.884201C142.677551 134.444687,143.437698 134.759628,144.230392 134.759628C145.023087 134.759628,145.783234 134.444687,146.343704 133.884201C146.904190 133.323730,147.219131 132.563583,147.219131 131.770889Z" style="fill: rgb(100.000000%,100.000000%,100.000000%);stroke: none;"></path>
  <path d="M183.054428 44.489929C183.054428 43.697235,182.739487 42.937088,182.179001 42.376617C181.618530 41.816132,180.858383 41.501190,180.065689 41.501190C179.272995 41.501190,178.512848 41.816132,177.952377 42.376617C177.391891 42.937088,177.076950 43.697235,177.076950 44.489929C177.076950 45.282623,177.391891 46.042770,177.952377 46.603241C178.512848 47.163727,179.272995 47.478668,180.065689 47.478668C180.858383 47.478668,181.618530 47.163727,182.179001 46.603241C182.739487 46.042770,183.054428 45.282623,183.054428 44.489929Z" style="fill: rgb(100.000000%,100.000000%,100.000000%);stroke: none;"></path>
  <path d="M199.826813 94.177917C199.826813 93.385223,199.511871 92.625076,198.951385 92.064606C198.390915 91.504120,197.630768 91.189178,196.838074 91.189178C196.045380 91.189178,195.285233 91.504120,194.724762 92.064606C194.164276 92.625076,193.849335 93.385223,193.849335 94.177917C193.849335 94.970612,194.164276 95.730759,194.724762 96.291229C195.285233 96.851715,196.045380 97.166656,196.838074 97.166656C197.630768 97.166656,198.390915 96.851715,198.951385 96.291229C199.511871 95.730759,199.826813 94.970612,199.826813 94.177917Z" style="fill: rgb(100.000000%,100.000000%,100.000000%);stroke: none;"></path>
  <path d="M119.929321 42.325348C119.929321 41.532654,119.614380 40.772507,119.053894 40.212036C118.493423 39.651550,117.733276 39.336609,116.940582 39.336609C116.147888 39.336609,115.387741 39.651550,114.827271 40.212036C114.266785 40.772507,113.951843 41.532654,113.951843 42.325348C113.951843 43.118042,114.266785 43.878189,114.827271 44.438660C115.387741 44.999146,116.147888 45.314087,116.940582 45.314087C117.733276 45.314087,118.493423 44.999146,119.053894 44.438660C119.614380 43.878189,119.929321 43.118042,119.929321 42.325348Z" style="fill: rgb(100.000000%,100.000000%,100.000000%);stroke: none;"></path>
  <path d="M158.758118 28.974762C158.758118 28.182068,158.443176 27.421921,157.882690 26.861450C157.322220 26.300964,156.562073 25.986023,155.769379 25.986023C154.976685 25.986023,154.216537 26.300964,153.656067 26.861450C153.095581 27.421921,152.780640 28.182068,152.780640 28.974762C152.780640 29.767456,153.095581 30.527603,153.656067 31.088074C154.216537 31.648560,154.976685 31.963501,155.769379 31.963501C156.562073 31.963501,157.322220 31.648560,157.882690 31.088074C158.443176 30.527603,158.758118 29.767456,158.758118 28.974762Z" style="fill: rgb(100.000000%,100.000000%,100.000000%);stroke: none;"></path>
  <path d="M88.859116 71.049576C88.859116 70.256882,88.544174 69.496735,87.983688 68.936264C87.423218 68.375778,86.663071 68.060837,85.870377 68.060837C85.077682 68.060837,84.317535 68.375778,83.757065 68.936264C83.196579 69.496735,82.881638 70.256882,82.881638 71.049576C82.881638 71.842270,83.196579 72.602417,83.757065 73.162888C84.317535 73.723373,85.077682 74.038315,85.870377 74.038315C86.663071 74.038315,87.423218 73.723373,87.983688 73.162888C88.544174 72.602417,88.859116 71.842270,88.859116 71.049576Z" style="fill: rgb(100.000000%,100.000000%,100.000000%);stroke: none;"></path>
  <path d="M110.766602 57.797119C110.766602 57.004425,110.451660 56.244278,109.891174 55.683807C109.330704 55.123322,108.570557 54.808380,107.777863 54.808380C106.985168 54.808380,106.225021 55.123322,105.664551 55.683807C105.104065 56.244278,104.789124 57.004425,104.789124 57.797119C104.789124 58.589813,105.104065 59.349960,105.664551 59.910431C106.225021 60.470917,106.985168 60.785858,107.777863 60.785858C108.570557 60.785858,109.330704 60.470917,109.891174 59.910431C110.451660 59.349960,110.766602 58.589813,110.766602 57.797119Z" style="fill: rgb(100.000000%,100.000000%,100.000000%);stroke: none;"></path>
  <path d="M65.288269 77.975037C65.288269 77.182343,64.973328 76.422195,64.412842 75.861725C63.852371 75.301239,63.092224 74.986298,62.299530 74.986298C61.506836 74.986298,60.746689 75.301239,60.186218 75.861725C59.625732 76.422195,59.310791 77.182343,59.310791 77.975037C59.310791 78.767731,59.625732 79.527878,60.186218 80.088348C60.746689 80.648834,61.506836 80.963776,62.299530 80.963776C63.092224 80.963776,63.852371 80.648834,64.412842 80.088348C64.973328 79.527878,65.288269 78.767731,65.288269 77.975037Z" style="fill: rgb(100.000000%,100.000000%,100.000000%);stroke: none;"></path>
  <path d="M79.792358 73.347412C79.792358 72.554718,79.477417 71.794571,78.916931 71.234100C78.356461 70.673615,77.596313 70.358673,76.803619 70.358673C76.010925 70.358673,75.250778 70.673615,74.690308 71.234100C74.129822 71.794571,73.814880 72.554718,73.814880 73.347412C73.814880 74.140106,74.129822 74.900253,74.690308 75.460724C75.250778 76.021210,76.010925 76.336151,76.803619 76.336151C77.596313 76.336151,78.356461 76.021210,78.916931 75.460724C79.477417 74.900253,79.792358 74.140106,79.792358 73.347412Z" style="fill: rgb(100.000000%,100.000000%,100.000000%);stroke: none;"></path>
  <path d="M41.427048 77.613907C41.427048 76.821213,41.112106 76.061066,40.551620 75.500595C39.991150 74.940109,39.231003 74.625168,38.438309 74.625168C37.645615 74.625168,36.885468 74.940109,36.324997 75.500595C35.764511 76.061066,35.449570 76.821213,35.449570 77.613907C35.449570 78.406601,35.764511 79.166748,36.324997 79.727219C36.885468 80.287704,37.645615 80.602646,38.438309 80.602646C39.231003 80.602646,39.991150 80.287704,40.551620 79.727219C41.112106 79.166748,41.427048 78.406601,41.427048 77.613907Z" style="fill: rgb(100.000000%,100.000000%,100.000000%);stroke: none;"></path>
  <path d="M59.482208 80.036301C59.482208 79.243607,59.167267 78.483459,58.606781 77.922989C58.046310 77.362503,57.286163 77.047562,56.493469 77.047562C55.700775 77.047562,54.940628 77.362503,54.380157 77.922989C53.819672 78.483459,53.504730 79.243607,53.504730 80.036301C53.504730 80.828995,53.819672 81.589142,54.380157 82.149612C54.940628 82.710098,55.700775 83.025040,56.493469 83.025040C57.286163 83.025040,58.046310 82.710098,58.606781 82.149612C59.167267 81.589142,59.482208 80.828995,59.482208 80.036301Z" style="fill: rgb(100.000000%,100.000000%,100.000000%);stroke: none;"></path>
  <path d="M32.294403 30.830322C32.294403 30.037628,31.979462 29.277481,31.418976 28.717010C30.858505 28.156525,30.098358 27.841583,29.305664 27.841583C28.512970 27.841583,27.752823 28.156525,27.192352 28.717010C26.631866 29.277481,26.316925 30.037628,26.316925 30.830322C26.316925 31.623016,26.631866 32.383163,27.192352 32.943634C27.752823 33.504120,28.512970 33.819061,29.305664 33.819061C30.098358 33.819061,30.858505 33.504120,31.418976 32.943634C31.979462 32.383163,32.294403 31.623016,32.294403 30.830322Z" style="fill: rgb(100.000000%,100.000000%,100.000000%);stroke: none;"></path>
  <path d="M33.541443 66.163086C33.541443 65.370392,33.226501 64.610245,32.666016 64.049774C32.105545 63.489288,31.345398 63.174347,30.552704 63.174347C29.760010 63.174347,28.999863 63.489288,28.439392 64.049774C27.878906 64.610245,27.563965 65.370392,27.563965 66.163086C27.563965 66.955780,27.878906 67.715927,28.439392 68.276398C28.999863 68.836884,29.760010 69.151825,30.552704 69.151825C31.345398 69.151825,32.105545 68.836884,32.666016 68.276398C33.226501 67.715927,33.541443 66.955780,33.541443 66.163086Z" style="fill: rgb(100.000000%,100.000000%,100.000000%);stroke: none;"></path>
  <path d="M101.180939 2.019394C101.180939 1.226700,100.865997 0.466553,100.305511 -0.093918C99.745041 -0.654404,98.984894 -0.969345,98.192200 -0.969345C97.399506 -0.969345,96.639359 -0.654404,96.078888 -0.093918C95.518402 0.466553,95.203461 1.226700,95.203461 2.019394C95.203461 2.812088,95.518402 3.572235,96.078888 4.132706C96.639359 4.693192,97.399506 5.008133,98.192200 5.008133C98.984894 5.008133,99.745041 4.693192,100.305511 4.132706C100.865997 3.572235,101.180939 2.812088,101.180939 2.019394Z" style="fill: rgb(100.000000%,100.000000%,100.000000%);stroke: none;"></path>
  <path d="M51.698654 13.539688C51.698654 12.746994,51.383713 11.986847,50.823227 11.426376C50.262756 10.865891,49.502609 10.550949,48.709915 10.550949C47.917221 10.550949,47.157074 10.865891,46.596603 11.426376C46.036118 11.986847,45.721176 12.746994,45.721176 13.539688C45.721176 14.332382,46.036118 15.092529,46.596603 15.653000C47.157074 16.213486,47.917221 16.528427,48.709915 16.528427C49.502609 16.528427,50.262756 16.213486,50.823227 15.653000C51.383713 15.092529,51.698654 14.332382,51.698654 13.539688Z" style="fill: rgb(100.000000%,100.000000%,100.000000%);stroke: none;"></path>
  <path d="M139.603729 53.408585C139.603729 52.615891,139.288788 51.855743,138.728302 51.295273C138.167831 50.734787,137.407684 50.419846,136.614990 50.419846C135.822296 50.419846,135.062149 50.734787,134.501678 51.295273C133.941193 51.855743,133.626251 52.615891,133.626251 53.408585C133.626251 54.201279,133.941193 54.961426,134.501678 55.521896C135.062149 56.082382,135.822296 56.397324,136.614990 56.397324C137.407684 56.397324,138.167831 56.082382,138.728302 55.521896C139.288788 54.961426,139.603729 54.201279,139.603729 53.408585Z" style="fill: rgb(100.000000%,100.000000%,100.000000%);stroke: none;"></path>
  <path d="M129.390884 12.391281C129.390884 11.598587,129.075943 10.838440,128.515457 10.277969C127.954987 9.717484,127.194839 9.402542,126.402145 9.402542C125.609451 9.402542,124.849304 9.717484,124.288834 10.277969C123.728348 10.838440,123.413406 11.598587,123.413406 12.391281C123.413406 13.183975,123.728348 13.944122,124.288834 14.504593C124.849304 15.065079,125.609451 15.380020,126.402145 15.380020C127.194839 15.380020,127.954987 15.065079,128.515457 14.504593C129.075943 13.944122,129.390884 13.183975,129.390884 12.391281Z" style="fill: rgb(100.000000%,100.000000%,100.000000%);stroke: none;"></path>
  <path d="M140.057175 103.200089C140.057175 102.407394,139.742233 101.647247,139.181747 101.086777C138.621277 100.526291,137.861130 100.211349,137.068436 100.211349C136.275742 100.211349,135.515594 100.526291,134.955124 101.086777C134.394638 101.647247,134.079697 102.407394,134.079697 103.200089C134.079697 103.992783,134.394638 104.752930,134.955124 105.313400C135.515594 105.873886,136.275742 106.188828,137.068436 106.188828C137.861130 106.188828,138.621277 105.873886,139.181747 105.313400C139.742233 104.752930,140.057175 103.992783,140.057175 103.200089Z" style="fill: rgb(100.000000%,100.000000%,100.000000%);stroke: none;"></path>
  <path d="M130.049377 70.627945C130.049377 69.835251,129.734436 69.075104,129.173950 68.514633C128.613480 67.954147,127.853333 67.639206,127.060638 67.639206C126.267944 67.639206,125.507797 67.954147,124.947327 68.514633C124.386841 69.075104,124.071899 69.835251,124.071899 70.627945C124.071899 71.420639,124.386841 72.180786,124.947327 72.741257C125.507797 73.301743,126.267944 73.616684,127.060638 73.616684C127.853333 73.616684,128.613480 73.301743,129.173950 72.741257C129.734436 72.180786,130.049377 71.420639,130.049377 70.627945Z" style="fill: rgb(100.000000%,100.000000%,100.000000%);stroke: none;"></path>
  <path d="M172.682129 151.573044C172.682129 150.780350,172.367188 150.020203,171.806702 149.459732C171.246231 148.899246,170.486084 148.584305,169.693390 148.584305C168.900696 148.584305,168.140549 148.899246,167.580078 149.459732C167.019592 150.020203,166.704651 150.780350,166.704651 151.573044C166.704651 152.365738,167.019592 153.125885,167.580078 153.686356C168.140549 154.246841,168.900696 154.561783,169.693390 154.561783C170.486084 154.561783,171.246231 154.246841,171.806702 153.686356C172.367188 153.125885,172.682129 152.365738,172.682129 151.573044Z" style="fill: rgb(100.000000%,100.000000%,100.000000%);stroke: none;"></path>
  <path d="M157.718063 112.051346C157.718063 111.258652,157.403122 110.498505,156.842636 109.938034C156.282166 109.377548,155.522018 109.062607,154.729324 109.062607C153.936630 109.062607,153.176483 109.377548,152.616013 109.938034C152.055527 110.498505,151.740585 111.258652,151.740585 112.051346C151.740585 112.844040,152.055527 113.604187,152.616013 114.164658C153.176483 114.725143,153.936630 115.040085,154.729324 115.040085C155.522018 115.040085,156.282166 114.725143,156.842636 114.164658C157.403122 113.604187,157.718063 112.844040,157.718063 112.051346Z" style="fill: rgb(100.000000%,100.000000%,100.000000%);stroke: none;"></path>
  <path d="M127.928207 186.694977C102.418854 197.577087,73.363098 182.210022,68.000000 155.000000C64.662567 138.067276,72.767548 121.332123,72.649887 104.176498C72.584702 94.670944,69.991730 85.438934,68.000000 76.156265C66.735046 70.260788,65.632065 64.155167,61.985062 59.332855C54.738327 49.750732,41.242218 48.240097,30.108170 53.567978C8.731552 63.797165,2.933380 90.458344,9.737915 114.361313C17.737976 142.463898,42.475433 163.357269,68.000000 155.000000C84.575607 149.572815,93.981018 131.481873,110.800537 126.688675C127.159821 122.026642,144.230392 131.770889,160.748535 127.948715C185.387375 122.247482,196.838074 94.177917,188.265259 68.781052C180.065689 44.489929,155.769379 28.974762,132.521500 36.968124C116.940582 42.325348,107.777863 57.797119,93.789032 66.259354C85.870377 71.049576,76.803619 73.347412,68.000000 76.156265C62.299530 77.975037,56.493469 80.036301,50.546753 79.238449C38.438309 77.613907,30.552704 66.163086,30.108170 53.567978C29.305664 30.830322,48.709915 13.539688,71.784149 8.167633C98.192200 2.019394,126.402145 12.391281,132.521500 36.968124C136.614990 53.408585,127.060638 70.627945,132.054657 86.881851C137.068436 103.200089,154.729324 112.051346,160.748535 127.948715C169.693390 151.573044,152.729889 176.114746,127.928207 186.694977" style="stroke:rgb(0.000000%,0.000000%,0.000000%); stroke-width: 0.498138;stroke-linecap: round;stroke-linejoin: round;stroke-miterlimit: 10.000000;fill: none;"></path>
  <path d="M127.928207 186.694977C102.418854 197.577087,73.363098 182.210022,68.000000 155.000000" style="stroke:rgb(0.000000%,0.000000%,0.000000%); stroke-width: 1.494400;stroke-linecap: round;stroke-linejoin: round;stroke-miterlimit: 10.000000;fill: none;"></path>
  <path d="M132.521500 36.968124C136.614990 53.408585,127.060638 70.627945,132.054657 86.881851C137.068436 103.200089,154.729324 112.051346,160.748535 127.948715C169.693390 151.573044,152.729889 176.114746,127.928207 186.694977" style="stroke:rgb(0.000000%,0.000000%,0.000000%); stroke-width: 1.494400;stroke-linecap: round;stroke-linejoin: round;stroke-miterlimit: 10.000000;fill: none;"></path>
  <path d="M70.988739 155.000000C70.988739 154.207306,70.673798 153.447159,70.113312 152.886688C69.552841 152.326202,68.792694 152.011261,68.000000 152.011261C67.207306 152.011261,66.447159 152.326202,65.886688 152.886688C65.326202 153.447159,65.011261 154.207306,65.011261 155.000000C65.011261 155.792694,65.326202 156.552841,65.886688 157.113312C66.447159 157.673798,67.207306 157.988739,68.000000 157.988739C68.792694 157.988739,69.552841 157.673798,70.113312 157.113312C70.673798 156.552841,70.988739 155.792694,70.988739 155.000000Z" style="fill: rgb(100.000000%,100.000000%,100.000000%);stroke: none;"></path>
  <path d="M32.297272 148.353119C42.672211 156.044617,55.237717 159.178635,68.000000 155.000000C76.287811 152.286407,82.783066 146.406876,89.308807 140.606583" style="stroke:rgb(0.000000%,0.000000%,0.000000%); stroke-width: 0.498138;stroke-linecap: round;stroke-linejoin: round;stroke-miterlimit: 10.000000;fill: none;"></path>
  <path d="M33.096909 53.567978C33.096909 52.775284,32.781967 52.015137,32.221481 51.454666C31.661011 50.894180,30.900864 50.579239,30.108170 50.579239C29.315475 50.579239,28.555328 50.894180,27.994858 51.454666C27.434372 52.015137,27.119431 52.775284,27.119431 53.567978C27.119431 54.360672,27.434372 55.120819,27.994858 55.681290C28.555328 56.241776,29.315475 56.556717,30.108170 56.556717C30.900864 56.556717,31.661011 56.241776,32.221481 55.681290C32.781967 55.120819,33.096909 54.360672,33.096909 53.567978Z" style="fill: rgb(100.000000%,100.000000%,100.000000%);stroke: none;"></path>
  <path d="M35.953476 70.517166C32.412964 65.876999,30.330429 59.865524,30.108170 53.567978C29.706909 42.199142,34.357361 32.192062,41.992401 24.355682" style="stroke:rgb(0.000000%,0.000000%,0.000000%); stroke-width: 0.498138;stroke-linecap: round;stroke-linejoin: round;stroke-miterlimit: 10.000000;fill: none;"></path>
  <path d="M163.737274 127.948715C163.737274 127.156021,163.422333 126.395874,162.861847 125.835403C162.301376 125.274918,161.541229 124.959976,160.748535 124.959976C159.955841 124.959976,159.195694 125.274918,158.635223 125.835403C158.074738 126.395874,157.759796 127.156021,157.759796 127.948715C157.759796 128.741409,158.074738 129.501556,158.635223 130.062027C159.195694 130.622513,159.955841 130.937454,160.748535 130.937454C161.541229 130.937454,162.301376 130.622513,162.861847 130.062027C163.422333 129.501556,163.737274 128.741409,163.737274 127.948715Z" style="fill: rgb(100.000000%,100.000000%,100.000000%);stroke: none;"></path>
  <path d="M146.024567 107.573120C151.818909 113.812881,157.738937 120.000031,160.748535 127.948715C165.220963 139.760880,163.216293 151.802399,156.993317 162.213394" style="stroke:rgb(0.000000%,0.000000%,0.000000%); stroke-width: 1.494400;stroke-linecap: round;stroke-linejoin: round;stroke-miterlimit: 10.000000;fill: none;"></path>
  <path d="M70.988739 76.156265C70.988739 75.363571,70.673798 74.603424,70.113312 74.042953C69.552841 73.482468,68.792694 73.167526,68.000000 73.167526C67.207306 73.167526,66.447159 73.482468,65.886688 74.042953C65.326202 74.603424,65.011261 75.363571,65.011261 76.156265C65.011261 76.948959,65.326202 77.709106,65.886688 78.269577C66.447159 78.830063,67.207306 79.145004,68.000000 79.145004C68.792694 79.145004,69.552841 78.830063,70.113312 78.269577C70.673798 77.709106,70.988739 76.948959,70.988739 76.156265Z" style="fill: rgb(100.000000%,100.000000%,100.000000%);stroke: none;"></path>
  <path d="M71.047379 90.082779C70.142029 85.426254,68.995865 80.797592,68.000000 76.156265C67.367523 73.208527,66.775528 70.208252,65.885788 67.342117" style="stroke:rgb(0.000000%,0.000000%,0.000000%); stroke-width: 0.498138;stroke-linecap: round;stroke-linejoin: round;stroke-miterlimit: 10.000000;fill: none;"></path>
  <path d="M135.510239 36.968124C135.510239 36.175430,135.195297 35.415283,134.634811 34.854813C134.074341 34.294327,133.314194 33.979385,132.521500 33.979385C131.728806 33.979385,130.968658 34.294327,130.408188 34.854813C129.847702 35.415283,129.532761 36.175430,129.532761 36.968124C129.532761 37.760818,129.847702 38.520966,130.408188 39.081436C130.968658 39.641922,131.728806 39.956863,132.521500 39.956863C133.314194 39.956863,134.074341 39.641922,134.634811 39.081436C135.195297 38.520966,135.510239 37.760818,135.510239 36.968124Z" style="fill: rgb(100.000000%,100.000000%,100.000000%);stroke: none;"></path>
  <path d="M166.036484 40.767899C156.031479 34.851898,144.145432 32.971451,132.521500 36.968124C124.731033 39.646744,118.545120 44.853989,112.558228 50.449371" style="stroke:rgb(0.000000%,0.000000%,0.000000%); stroke-width: 0.498138;stroke-linecap: round;stroke-linejoin: round;stroke-miterlimit: 10.000000;fill: none;"></path>
  <path d="M132.054657 86.881851C136.065689 99.936493,148.170944 108.212234,155.934402 119.139847" style="stroke:rgb(0.000000%,0.000000%,0.000000%); stroke-width: 0.498138;stroke-linecap: round;stroke-linejoin: round;stroke-miterlimit: 10.000000;fill: none;"></path>
  <path d="M151.592926 116.659088C153.075104 117.437653,154.527740 118.257202,155.934402 119.139847C155.563904 117.521057,155.116272 115.914368,154.618744 114.315765Z" style="stroke:rgb(0.000000%,0.000000%,0.000000%); stroke-width: 0.498138;fill: rgb(0.000000%,0.000000%,0.000000%);"></path>
  <path d="M132.054657 86.881851C136.065689 99.936493,148.170944 108.212234,155.934402 119.139847" style="stroke:rgb(0.000000%,0.000000%,0.000000%); stroke-width: 0.498138;stroke-linecap: round;stroke-linejoin: round;stroke-miterlimit: 10.000000;fill: none;"></path>
  <path d="M153.352219 117.612167C154.227173 118.101791,155.089096 118.609436,155.934402 119.139847C155.711777 118.167053,155.461273 117.198624,155.188828 116.233719Z" style="stroke:rgb(0.000000%,0.000000%,0.000000%); stroke-width: 0.498138;fill: rgb(0.000000%,0.000000%,0.000000%);"></path>
  <path d="M61.985062 59.332855C56.187653 51.667130,46.390625 49.167191,37.003052 51.201752" style="stroke:rgb(0.000000%,0.000000%,0.000000%); stroke-width: 0.498138;stroke-linecap: round;stroke-linejoin: round;stroke-miterlimit: 10.000000;fill: none;"></path>
  <path d="M39.550217 49.616806C38.680878 50.099091,37.830368 50.628281,37.003052 51.201752C37.993546 51.381271,38.969147 51.608490,39.924881 51.882187Z" style="stroke:rgb(0.000000%,0.000000%,0.000000%); stroke-width: 0.498138;fill: rgb(0.000000%,0.000000%,0.000000%);"></path>
  <path d="M110.800537 126.688675C123.888016 122.959030,137.430725 128.449478,150.781631 128.837830" style="stroke:rgb(0.000000%,0.000000%,0.000000%); stroke-width: 0.498138;stroke-linecap: round;stroke-linejoin: round;stroke-miterlimit: 10.000000;fill: none;"></path>
  <path d="M147.950760 129.830246C148.904587 129.521729,149.849060 129.192734,150.781631 128.837830C149.871246 128.429337,148.970779 127.994110,148.078201 127.537796Z" style="stroke:rgb(0.000000%,0.000000%,0.000000%); stroke-width: 0.498138;fill: rgb(0.000000%,0.000000%,0.000000%);"></path>
  <path d="M93.789032 66.259354C87.454086 70.091553,80.384338 72.328598,73.302383 74.508270" style="stroke:rgb(0.000000%,0.000000%,0.000000%); stroke-width: 0.498138;stroke-linecap: round;stroke-linejoin: round;stroke-miterlimit: 10.000000;fill: none;"></path>
  <path d="M75.608887 72.590118C74.842712 73.232269,74.072845 73.870712,73.302383 74.508270C74.298004 74.602280,75.293823 74.695221,76.289642 74.782928Z" style="stroke:rgb(0.000000%,0.000000%,0.000000%); stroke-width: 0.498138;fill: rgb(0.000000%,0.000000%,0.000000%);"></path>
  <path d="M50.546753 79.238449C40.859955 77.938812,33.875809 70.350311,31.242050 60.918167" style="stroke:rgb(0.000000%,0.000000%,0.000000%); stroke-width: 0.498138;stroke-linecap: round;stroke-linejoin: round;stroke-miterlimit: 10.000000;fill: none;"></path>
  <path d="M33.207504 63.184494C32.519653 62.467178,31.863342 61.710480,31.242050 60.918167C31.121094 61.917725,31.050110 62.916885,31.029251 63.910477Z" style="stroke:rgb(0.000000%,0.000000%,0.000000%); stroke-width: 0.498138;fill: rgb(0.000000%,0.000000%,0.000000%);"></path>
  <path d="M124.937561 189.405182L130.918854 189.405182L130.918854 181.984787L124.937561 181.984787Z" style="fill: rgb(100.000000%,100.000000%,100.000000%);stroke: none;"></path>
  <path d="M124.937561 191.405182L130.918854 191.405182L130.918854 183.984787L124.937561 183.984787Z" style="fill: rgb(100.000000%,100.000000%,100.000000%);stroke: none;"></path>
  <g transform="translate(125.437561 189.905182)" style="fill: rgb(0.000000%,0.000000%,0.000000%);">
    <use xlink:href="#GLYPHcmr10_49"></use>
  </g>
  <path d="M69.659241 106.886703L75.640533 106.886703L75.640533 99.466309L69.659241 99.466309Z" style="fill: rgb(100.000000%,100.000000%,100.000000%);stroke: none;"></path>
  <path d="M69.659241 108.886703L75.640533 108.886703L75.640533 101.466309L69.659241 101.466309Z" style="fill: rgb(100.000000%,100.000000%,100.000000%);stroke: none;"></path>
  <g transform="translate(70.159241 107.386703)" style="fill: rgb(0.000000%,0.000000%,0.000000%);">
    <use xlink:href="#GLYPHcmr10_50"></use>
  </g>
  <path d="M6.747269 117.071518L12.728561 117.071518L12.728561 109.651123L6.747269 109.651123Z" style="fill: rgb(100.000000%,100.000000%,100.000000%);stroke: none;"></path>
  <path d="M6.747269 119.071518L12.728561 119.071518L12.728561 111.651123L6.747269 111.651123Z" style="fill: rgb(100.000000%,100.000000%,100.000000%);stroke: none;"></path>
  <g transform="translate(7.247269 117.571518)" style="fill: rgb(0.000000%,0.000000%,0.000000%);">
    <use xlink:href="#GLYPHcmr10_51"></use>
  </g>
  <path d="M185.274612 71.491257L191.255905 71.491257L191.255905 64.070862L185.274612 64.070862Z" style="fill: rgb(100.000000%,100.000000%,100.000000%);stroke: none;"></path>
  <path d="M185.274612 73.491257L191.255905 73.491257L191.255905 66.070862L185.274612 66.070862Z" style="fill: rgb(100.000000%,100.000000%,100.000000%);stroke: none;"></path>
  <g transform="translate(185.774612 71.991257)" style="fill: rgb(0.000000%,0.000000%,0.000000%);">
    <use xlink:href="#GLYPHcmr10_52"></use>
  </g>
  <path d="M68.793503 10.877838L74.774796 10.877838L74.774796 3.457443L68.793503 3.457443Z" style="fill: rgb(100.000000%,100.000000%,100.000000%);stroke: none;"></path>
  <path d="M68.793503 12.877838L74.774796 12.877838L74.774796 5.457443L68.793503 5.457443Z" style="fill: rgb(100.000000%,100.000000%,100.000000%);stroke: none;"></path>
  <g transform="translate(69.293503 11.377838)" style="fill: rgb(0.000000%,0.000000%,0.000000%);">
    <use xlink:href="#GLYPHcmr10_53"></use>
  </g>
</svg>
